<?xml version="1.0" encoding="utf-8"?>
<svg viewBox="0 0 100 100" xmlns="http://www.w3.org/2000/svg" xmlns:bx="https://boxy-svg.com">
<rect width="540" height="100" style="fill: rgb(113, 183, 255);" y="-220" x="220"/>
<path style="fill: rgb(255, 255, 255);" d="M 405 -196 L 413 -196 L 422 -192 L 426 -174 L 423 -156 L 420 -157 L 421 -172 L 418 -185 L 417 -165 L 417 -130 L 423 -124 L 419 -123 L 413 -128 L 410 -159 L 408 -128 L 401 -123 L 397 -124 L 404 -130 L 402 -165 L 401 -185 L 399 -173 L 399 -159 L 396 -157 L 394 -174 L 396 -191 L 405 -196 Z"/>
<path style="fill: rgb(17, 17, 17);" d="M 405 -196 L 405 -198 L 404 -199 L 404 -203 L 402 -208 L 404 -209 L 404 -214 L 410 -216 L 415 -212 L 415 -209 L 417 -208 L 415 -203 L 414 -198 L 413 -197 L 413 -196 L 409 -186 L 405 -196 Z"/>
<path style="fill: rgb(17, 17, 17);" d="M 396 -157 L 399 -159 L 402 -156 L 400 -155 L 401 -150 L 398 -150 L 396 -157 Z"/>
<path style="fill: rgb(17, 17, 17);" d="M 420 -157 L 423 -156 L 420 -148 L 418 -150 L 420 -153 L 417 -154 L 420 -157 Z"/>
<path style="fill: rgb(17, 17, 17);" d="M 605 -196 L 605 -198 L 604 -199 L 604 -203 L 602 -208 L 604 -209 L 604 -214 L 610 -216 L 615 -212 L 615 -209 L 617 -208 L 615 -203 L 614 -198 L 613 -197 L 613 -196 L 622 -192 L 626 -174 L 623 -156 L 620 -148 L 618 -150 L 620 -153 L 617 -154 L 620 -157 L 621 -172 L 618 -185 L 617 -165 L 617 -130 L 623 -124 L 619 -123 L 613 -128 L 610 -159 L 608 -128 L 601 -123 L 597 -124 L 604 -130 L 602 -165 L 601 -185 L 599 -173 L 599 -159 L 602 -156 L 600 -155 L 601 -150 L 598 -150 L 596 -157 L 594 -174 L 596 -191 L 605 -196 Z"/>
<path style="fill: rgb(255, 255, 255);" d="M 455 -196 L 463 -196 L 472 -192 L 476 -174 L 473 -156 L 470 -157 L 471 -172 L 468 -185 L 467 -165 L 452 -165 L 451 -185 L 449 -173 L 449 -159 L 446 -157 L 444 -174 L 446 -191 L 455 -196 Z"/>
<path style="fill: rgb(17, 17, 17);" d="M 455 -196 L 455 -198 L 454 -199 L 454 -203 L 452 -208 L 454 -209 L 454 -214 L 460 -216 L 465 -212 L 465 -209 L 467 -208 L 465 -203 L 464 -198 L 463 -197 L 463 -196 L 459 -186 L 455 -196 Z"/>
<path style="fill: rgb(17, 17, 17);" d="M 446 -157 L 449 -159 L 452 -156 L 450 -155 L 451 -150 L 448 -150 L 446 -157 Z"/>
<path style="fill: rgb(17, 17, 17);" d="M 470 -157 L 473 -156 L 470 -148 L 468 -150 L 470 -153 L 467 -154 L 470 -157 Z"/>
<path style="fill: rgb(17, 17, 17);" d="M 452 -165 L 467 -165 L 467 -130 L 473 -124 L 469 -123 L 463 -128 L 460 -159 L 458 -128 L 451 -123 L 447 -124 L 454 -130 L 452 -165 Z"/>
<path style="fill: rgb(17, 17, 17);" d="M 505 -196 L 505 -198 L 504 -199 L 504 -203 L 502 -208 L 504 -209 L 504 -214 L 510 -216 L 515 -212 L 515 -209 L 517 -208 L 515 -203 L 514 -198 L 513 -197 L 513 -196 L 522 -192 L 526 -174 L 523 -156 L 520 -148 L 518 -150 L 520 -153 L 517 -154 L 520 -157 L 521 -172 L 518 -185 L 518 -160 L 517 -130 L 523 -124 L 519 -123 L 513 -128 L 510 -159 L 508 -128 L 501 -123 L 497 -124 L 504 -130 L 502 -160 L 501 -185 L 499 -173 L 499 -159 L 502 -156 L 500 -155 L 501 -150 L 498 -150 L 496 -157 L 494 -174 L 496 -191 L 505 -196 Z"/>
<path style="fill: rgb(255, 255, 255);" d="M 505 -196 C 505 -195 513 -195 513 -196 L 509 -180 L 505 -196 Z"/>
<path style="fill: rgb(255, 255, 255);" d="M 555 -196 L 563 -196 L 572 -192 L 576 -174 L 573 -156 L 570 -157 L 571 -172 L 568 -185 L 567 -165 L 567 -130 L 573 -124 L 569 -123 L 563 -128 L 560 -159 L 558 -128 L 551 -123 L 547 -124 L 554 -130 L 552 -165 L 551 -185 L 549 -173 L 549 -159 L 546 -157 L 544 -174 L 546 -191 L 555 -196 Z"/>
<path style="fill: rgb(17, 17, 17);" d="M 555 -196 L 555 -198 L 554 -199 L 554 -203 L 552 -208 L 554 -209 L 554 -214 L 560 -216 L 565 -212 L 565 -209 L 567 -208 L 565 -203 L 564 -198 L 563 -197 L 563 -196 L 559 -177 L 555 -196 Z"/>
<path style="fill: rgb(17, 17, 17);" d="M 546 -157 L 549 -159 L 552 -156 L 550 -155 L 551 -150 L 548 -150 L 546 -157 Z"/>
<path style="fill: rgb(17, 17, 17);" d="M 570 -157 L 573 -156 L 570 -148 L 568 -150 L 570 -153 L 567 -154 L 570 -157 Z"/>
<path style="fill: rgb(255, 255, 255);" d="M 556 -196 L 557 -193 L 562 -196 L 561 -193"/>
<path style="" d="M 505 -195 L 507 -192 L 513 -195 L 511 -192"/>
<path style="fill: rgb(255, 255, 255);" d="M 605 -196 L 613 -196 L 622 -192 L 626 -174 L 621 -172 L 618 -185 L 617 -165 L 602 -165 L 601 -185 L 599 -173 L 594 -174 L 596 -191 L 605 -196 Z"/>
<path style="fill: rgb(17, 17, 17);" d="M 605 -196 L 605 -198 L 604 -199 L 604 -203 L 602 -208 L 604 -209 L 604 -214 L 610 -216 L 615 -212 L 615 -209 L 617 -208 L 615 -203 L 614 -198 L 613 -197 L 613 -196 L 609 -186 L 605 -196 Z"/>
<path style="fill: rgb(17, 17, 17);" d="M 596 -157 L 599 -159 L 602 -156 L 600 -155 L 601 -150 L 598 -150 L 596 -157 Z"/>
<path style="fill: rgb(17, 17, 17);" d="M 620 -157 L 623 -156 L 620 -148 L 618 -150 L 620 -153 L 617 -154 L 620 -157 Z"/>
<path style="fill: rgb(255, 255, 255);" d="M 604 -130 L 608 -128 L 601 -123 L 597 -124 L 604 -130 Z"/>
<path style="fill: rgb(255, 255, 255);" d="M 613 -128 L 617 -130 L 623 -124 L 619 -123 L 613 -128 Z"/>
<path style="fill: rgb(17, 17, 17);" d="M 344 -174 L 349 -173 L 349 -159 L 352 -156 L 350 -155 L 351 -150 L 348 -150 L 346 -157 L 344 -174 Z"/>
<path style="fill: rgb(255, 255, 255);" d="M 355 -196 L 363 -196 L 372 -192 L 376 -174 L 371 -172 L 368 -185 L 367 -165 L 352 -165 L 351 -185 L 349 -173 L 344 -174 L 346 -191 L 355 -196 Z"/>
<path style="fill: rgb(17, 17, 17);" d="M 355 -196 L 355 -198 L 354 -199 L 354 -203 L 352 -208 L 354 -209 L 354 -214 L 360 -216 L 365 -212 L 365 -209 L 367 -208 L 365 -203 L 364 -198 L 363 -197 L 363 -196 L 359 -186 L 355 -196 Z"/>
<path style="fill: rgb(255, 255, 255);" d="M 354 -130 L 358 -128 L 351 -123 L 347 -124 L 354 -130 Z"/>
<path style="fill: rgb(255, 255, 255);" d="M 363 -128 L 367 -130 L 373 -124 L 369 -123 L 363 -128 Z"/>
<path style="fill: none; stroke: rgb(255, 255, 255); stroke-linecap: round; stroke-linejoin: round;" d="M 355 -208 L 355 -205 L 359 -205 L 360 -208 L 361 -205 L 365 -205 L 365 -208 L 355 -208 Z"/>
<path style="fill: rgb(17, 17, 17);" d="M 371 -172 L 376 -174 L 373 -156 L 370 -148 L 368 -150 L 370 -153 L 367 -154 L 370 -157 L 371 -172 Z"/>
<path style="fill: rgb(17, 17, 17);" d="M 352 -165 L 367 -165 L 367 -130 L 363 -128 L 360 -159 L 358 -128 L 354 -130 L 352 -165 Z"/>
<path style="fill: rgb(17, 17, 17);" d="M 301 -196 C 302 -199 299 -198 300 -203 C 297 -203 297 -209 300 -209 C 300 -220 311 -220 311 -209 C 314 -210 314 -204 311 -203 C 311 -198 309 -199 309 -196 C 323 -192 321 -169 321 -169 C 321 -169 319 -147 315 -149 C 316 -151 318 -156 314 -153 C 314 -153 314 -155 316 -157 C 317 -160 317 -177 314 -184 C 313 -180 313 -165 313 -165 L 313 -130 C 313 -130 317 -127 318 -125 C 319 -123 315 -122 314 -124 C 312 -127 310 -125 309 -128 L 306 -159 L 304 -128 C 303 -125 302 -127 298 -124 C 296 -123 293 -123 294 -125 C 295 -127 297 -128 300 -130 L 298 -165 C 298 -169 297 -181 297 -184 C 294 -179 293 -164 295 -158 C 297 -157 298 -155 298 -154 C 296 -156 295 -153 296 -149 C 293 -147 290 -169 290 -169 C 290 -169 288 -191 301 -196 Z"/>
<path style="fill: rgb(255, 255, 255);" d="M 298 -165 L 313 -165 L 314 -148 L 307 -147 L 306 -155 L 306 -147 L 298 -148 L 298 -165 Z"/>
<path style="fill: rgb(17, 17, 17);" d="M 251 -196 L 251 -198 L 250 -199 L 250 -203 L 248 -208 L 250 -209 L 250 -214 L 258 -218 L 261 -212 L 261 -209 L 263 -208 L 261 -203 L 260 -198 L 259 -197 L 259 -196 L 268 -190 L 272 -174 L 269 -157 L 267 -151 L 265 -149 L 266 -155 L 264 -154 L 266 -159 L 267 -172 L 264 -184 L 263 -165 L 263 -130 L 269 -124 L 265 -123 L 259 -128 L 256 -159 L 254 -128 L 247 -123 L 243 -124 L 250 -130 L 248 -165 L 247 -184 L 245 -173 L 245 -159 L 248 -154 L 246 -155 L 246 -149 L 244 -150 L 242 -157 L 240 -174 L 242 -190 L 251 -196 Z"/>
<path style="fill: rgb(255, 255, 255);" d="M 248 -165 L 263 -165 L 264 -148 L 257 -147 L 256 -155 L 256 -147 L 248 -148 L 248 -165 Z"/>
<rect width="100" height="100" style="fill: rgb(113, 183, 255);" x="110"/>
<path style="fill: rgb(17, 17, 17);" d="M 155 26 L 155 24 L 154 23 L 154 19 L 152 14 L 154 13 L 154 8 L 162 4 L 165 10 L 165 13 L 167 14 L 165 19 L 164 24 L 163 25 L 163 26 L 172 32 L 176 48 L 173 65 L 171 71 L 169 73 L 170 67 L 168 68 L 170 63 L 171 49 L 168 38 L 167 57 L 167 92 L 172 98 L 169 99 L 163 94 L 160 63 L 158 94 L 151 99 L 148 98 L 154 92 L 152 57 L 151 38 L 149 49 L 149 63 L 152 68 L 150 67 L 150 73 L 148 72 L 146 65 L 144 48 L 146 32 L 155 26 Z"/>
<path style="fill: rgb(255, 255, 255);" d="M 152 57 L 167 57 L 168 74 L 161 75 L 160 67 L 160 75 L 152 74 L 152 57 Z"/>
<g transform="matrix(1, 0, 0, 1, 514.114929, 309.785828)"/>
<rect width="100" height="100" style="fill: rgb(113, 183, 255);" x="330"/>
<path d="M 388 23 C 388 29 386 33 382 33 C 378 33 375 29 375 23 C 375 16 372 16 381 12 C 390 8 388 17 388 23 Z" style="fill: rgb(17, 17, 17);"/>
<rect width="100" height="100" style="fill: rgb(113, 183, 255);" x="440"/>
<rect width="100" height="100" style="fill: rgb(113, 183, 255);" y="-110" x="110"/>
<g transform="matrix(1, 0, 0, 1, 110, 0)">
<g transform="matrix(1, 0, 0, 1, 0.505981, -109.92009)">
<path style="fill: rgb(17, 17, 17);" d="M 45 24 C 46 21 43 22 44 17 C 41 17 41 11 44 11 C 44 0 55 0 55 11 C 58 10 58 16 55 17 C 55 22 53 21 53 24 C 67 28 65 51 65 51 C 65 51 63 73 59 71 C 60 69 62 64 58 67 C 58 67 58 65 60 63 C 61 60 61 43 58 36 C 57 40 57 55 57 55 L 57 90 C 57 90 61 93 62 95 C 63 97 59 98 58 96 C 56 93 54 95 53 92 L 50 61 L 48 92 C 47 95 46 93 42 96 C 40 97 37 97 38 95 C 39 93 41 92 44 90 L 42 55 C 42 51 41 39 41 36 C 38 41 37 56 39 62 C 41 63 42 65 42 66 C 40 64 39 67 40 71 C 37 73 34 51 34 51 C 34 51 32 29 45 24 Z"/>
<path style="fill: rgb(255, 255, 255);" d="M 42 55 L 57 55 L 58 72 L 51 73 L 50 65 L 50 73 L 42 72 L 42 55 Z"/>
</g>
</g>
<rect width="100" height="100" style="fill: rgb(113, 183, 255);" y="-110"/>
<path style="fill: rgb(255, 255, 255);" d="M 46 -86 C 47 -89 44 -88 45 -93 C 42 -93 42 -99 45 -99 C 45 -110 56 -110 56 -99 C 59 -100 59 -94 56 -93 C 56 -88 54 -89 54 -86 C 68 -82 66 -59 66 -59 C 66 -59 64 -37 60 -39 C 61 -41 63 -46 59 -43 C 59 -43 59 -45 61 -47 C 62 -50 62 -67 59 -74 C 58 -70 58 -55 58 -55 L 58 -20 C 58 -20 62 -17 63 -15 C 64 -13 60 -12 59 -14 C 57 -17 55 -15 54 -18 L 51 -49 L 49 -18 C 48 -15 47 -17 43 -14 C 41 -13 38 -13 39 -15 C 40 -17 42 -18 45 -20 L 43 -55 C 43 -59 42 -71 42 -74 C 39 -69 38 -54 40 -48 C 42 -47 43 -45 43 -44 C 41 -46 40 -43 41 -39 C 38 -37 35 -59 35 -59 C 35 -59 33 -81 46 -86 Z"/>
<path style="fill: rgb(17, 17, 17);" d="M 43 -55 L 58 -55 L 59 -38 L 52 -37 L 51 -45 L 51 -37 L 43 -38 L 43 -55 Z"/>
<rect width="100" height="100" style="fill: rgb(113, 183, 255);" y="-220" x="110"/>
<path style="fill: rgb(17, 17, 17);" d="M 155 -195 C 157 -197 154 -197 154 -198 C 154 -199 154 -201 154 -202 C 154 -204 152 -205 152 -207 C 152 -208 154 -207 154 -208 C 155 -212 150 -219 162 -217 C 168 -216 164 -211 165 -208 C 165 -207 167 -208 167 -207 C 167 -205 166 -204 165 -202 C 165 -200 165 -199 164 -197 C 164 -197 162 -196 163 -195 C 166 -193 170 -192 172 -189 C 175 -184 176 -178 176 -173 C 176 -167 174 -162 173 -156 C 173 -154 172 -152 171 -150 C 171 -149 169 -147 169 -148 C 169 -150 170 -152 170 -154 C 170 -155 168 -152 168 -153 C 168 -155 170 -156 170 -158 C 171 -162 171 -167 171 -171 C 171 -175 170 -187 168 -183 C 165 -177 167 -170 167 -164 C 167 -152 166 -141 167 -129 C 167 -126 171 -126 172 -123 C 172 -122 170 -122 169 -122 C 167 -123 164 -124 163 -127 C 160 -137 170 -158 160 -158 C 150 -158 161 -137 158 -127 C 157 -124 154 -123 151 -122 C 150 -122 148 -122 148 -123 C 149 -126 154 -126 154 -129 C 155 -141 153 -152 152 -164 C 152 -170 153 -177 151 -183 C 150 -186 149 -176 149 -172 C 149 -167 148 -163 149 -158 C 149 -156 152 -155 152 -153 C 152 -152 150 -155 150 -154 C 149 -152 151 -150 150 -148 C 150 -147 148 -148 148 -149 C 147 -151 146 -154 146 -156 C 145 -162 144 -167 144 -173 C 144 -178 144 -184 146 -189 C 148 -192 152 -193 155 -195 Z"/>
<path style="fill: rgb(255, 255, 255);" d="M 152 -164 C 152 -162 167 -162 167 -164 C 168 -164 168 -147 168 -147 C 169 -145 161 -145 161 -146 L 160 -154 L 160 -146 C 159 -145 151 -146 152 -147 C 152 -147 151 -164 152 -164 Z"/>
<rect width="100" height="100" style="fill: rgb(113, 183, 255);" y="-330" x="110"/>
<path style="fill: rgb(17, 17, 17);" d="M 156 -305 C 156 -308 154 -308 154 -312 C 154 -314 150 -317 154 -318 C 155 -322 147 -330 162 -327 C 168 -326 164 -321 165 -318 C 168 -319 166 -314 165 -312 C 165 -308 162 -308 163 -305 C 166 -303 170 -302 172 -299 C 175 -294 176 -287 176 -282 C 176 -276 175 -272 174 -266 C 174 -263 171 -257 170 -258 C 169 -260 171 -261 171 -264 C 171 -265 169 -262 169 -263 C 169 -265 171 -266 172 -268 C 173 -272 171 -277 171 -281 C 171 -285 170 -297 168 -293 C 165 -287 166 -280 167 -274 C 169 -262 167 -251 167 -239 C 167 -236 171 -236 172 -233 C 172 -232 170 -232 169 -232 C 167 -233 164 -234 163 -237 C 161 -247 170 -268 160 -268 C 150 -268 161 -247 158 -237 C 157 -234 154 -233 151 -232 C 150 -232 148 -232 148 -233 C 149 -236 154 -236 154 -239 C 155 -251 153 -262 152 -274 C 152 -280 153 -287 151 -293 C 150 -296 149 -286 149 -282 C 149 -277 147 -273 148 -268 C 148 -266 151 -265 151 -263 C 151 -262 149 -265 149 -264 C 148 -262 151 -260 150 -258 C 149 -257 146 -264 146 -266 C 145 -272 144 -277 144 -283 C 144 -288 144 -294 146 -299 C 148 -302 153 -303 156 -305 Z"/>
<path style="fill: rgb(255, 255, 255);" d="M 152 -274 C 152 -272 167 -272 167 -274 C 169 -274 168 -257 168 -257 C 170 -254 161 -255 161 -256 L 160 -264 L 159 -256 C 158 -255 150 -255 152 -257 C 152 -257 151 -274 152 -274 Z"/>
<rect width="100" height="100" style="fill: rgb(113, 183, 255);" y="-330"/>
<path style="fill: rgb(255, 255, 255);" d="M 46 -305 C 46 -308 44 -308 44 -312 C 44 -314 40 -317 44 -318 C 45 -322 37 -330 52 -327 C 58 -326 54 -321 55 -318 C 58 -319 56 -314 55 -312 C 55 -308 52 -308 53 -305 C 56 -303 60 -302 62 -299 C 65 -294 66 -288 66 -283 C 66 -277 64 -272 63 -266 C 64 -263 60 -257 59 -258 C 58 -260 60 -262 60 -264 C 60 -265 58 -262 58 -263 C 58 -265 60 -266 61 -268 C 62 -272 61 -277 61 -281 C 61 -285 60 -297 58 -293 C 55 -287 56 -280 57 -274 C 59 -262 57 -251 57 -239 C 57 -236 61 -236 62 -233 C 62 -232 60 -232 59 -232 C 57 -233 54 -234 53 -237 C 50 -247 60 -268 50 -268 C 40 -268 51 -247 48 -237 C 47 -234 44 -233 41 -232 C 40 -232 38 -232 38 -233 C 39 -236 44 -236 44 -239 C 45 -251 43 -262 42 -274 C 42 -280 43 -287 41 -293 C 40 -296 39 -286 39 -282 C 39 -277 37 -273 38 -268 C 38 -266 41 -265 41 -263 C 41 -262 39 -265 39 -264 C 38 -262 41 -260 40 -258 C 39 -257 36 -264 36 -266 C 35 -272 34 -277 34 -283 C 34 -288 34 -294 36 -299 C 38 -302 43 -303 46 -305 Z"/>
<path style="fill: rgb(17, 17, 17);" d="M 42 -274 C 42 -272 57 -272 57 -274 C 59 -274 58 -257 58 -257 C 60 -254 51 -255 51 -256 L 50 -264 L 50 -256 C 49 -255 40 -255 42 -257 C 42 -257 41 -274 42 -274 Z"/>
<rect width="100" height="100" style="fill: rgb(113, 183, 255);" y="-330" x="220"/>
<path style="fill: rgb(17, 17, 17);" d="M 266 -323 C 261 -325 251 -310 267 -297 C 278 -292 286 -329 266 -323 Z"/>
<path style="fill: rgb(255, 255, 255);" d="M 263 -317 C 258 -306 266 -308 266 -300 C 259 -295 254 -278 257 -268 C 257 -263 259 -260 260 -259 C 261 -258 259 -266 261 -265 C 263 -264 260 -268 259 -269 C 257 -277 260 -285 263 -292 C 263 -287 268 -282 264 -275 C 262 -271 261 -253 264 -238 C 264 -236 255 -236 259 -234 C 263 -232 268 -236 267 -239 C 266 -244 266 -269 271 -269 C 276 -269 275 -243 274 -239 C 271 -235 278 -232 281 -233 C 284 -234 276 -237 277 -239 C 281 -262 279 -270 277 -275 C 273 -281 277 -285 277 -292 C 283 -287 285 -277 283 -269 C 283 -268 278 -263 281 -265 C 284 -267 281 -259 282 -260 C 284 -262 285 -268 285 -268 C 289 -281 283 -295 271 -300 C 271 -309 277 -313 273 -314 C 270 -314 268 -322 263 -317 Z"/>
<path style="fill: rgb(17, 17, 17);" d="M 264 -275 C 263 -274 268 -268 271 -268 C 274 -268 279 -274 277 -275 C 271 -272 264 -275 264 -275 Z"/>
<path style="fill: rgb(17, 17, 17);" d="M 264 -299 C 264 -299 261 -291 264 -287 C 267 -283 271 -286 270 -288 C 270 -285 275 -284 277 -288 C 279 -292 275 -298 275 -298 C 275 -298 277 -295 277 -291 C 277 -291 270 -291 270 -289 C 270 -291 264 -291 264 -291 C 262 -291 264 -299 264 -299 Z"/>
<path style="fill: rgb(255, 255, 255);" d="M 387 23 C 389 22 390 26 387 26 L 384 31 L 384 36 C 393 38 393 49 394 55 L 395 69 L 392 75 L 392 71 L 390 71 L 393 68 L 391 55 L 388 45 C 386 49 386 54 387 56 C 390 62 390 71 389 79 L 388 92 L 394 97 L 391 98 L 385 95 L 386 92 L 384 78 L 381 65 L 380 65 L 377 78 L 374 92 L 375 95 L 369 99 L 367 98 L 372 93 L 372 79 C 371 70 372 61 375 56 C 376 54 376 49 374 45 L 370 55 L 368 67 L 370 71 L 368 70 L 368 74 L 366 68 L 367 55 C 369 49 369 38 379 36 L 379 31 L 376 26 C 373 26 374 22 376 23 C 377 11 387 13 387 23 Z"/>
<path style="fill: rgb(17, 17, 17);" d="M 374 58 L 380 65 L 381 65 L 388 58 L 387 56 L 387 49 L 390 45 L 384 36 L 381 44 L 379 36 L 373 45 L 375 48 L 375 56 L 374 58 Z"/>
<ellipse style="fill: none; stroke: rgb(17, 17, 17);" cx="379" cy="23" rx="2" ry="2"/>
<ellipse style="fill: none; stroke: rgb(17, 17, 17);" cx="384" cy="23" rx="2" ry="2"/>
<rect width="100" height="100" style="fill: rgb(113, 183, 255);" x="220"/>
<path style="fill: rgb(17, 17, 17);" d="M 261 24 C 261 3 284 11 278 19 C 278 27 274 36 271 36 C 266 34 261 30 261 24 Z"/>
<path style="fill: rgb(255, 255, 255);" d="M 275 16 C 276 16 278 23 272 29 L 272 33 C 275 34 278 35 279 37 C 282 42 280 49 281 53 L 281 68 L 279 74 L 279 69 L 277 71 L 279 67 L 278 53 L 277 41 C 276 42 273 52 275 55 C 280 63 276 72 275 80 L 274 93 C 277 96 281 98 277 98 C 275 98 271 97 272 93 C 272 86 270 83 272 79 C 271 75 270 70 270 63 L 269 63 C 269 66 269 72 267 79 C 269 84 267 86 267 93 C 267 95 265 98 263 98 C 258 98 263 95 265 93 L 264 80 C 262 71 260 62 264 55 C 266 52 264 42 263 41 L 261 53 L 260 66 L 262 71 L 260 69 L 260 74 L 258 67 L 258 53 C 259 50 258 41 261 37 C 263 34 265 34 268 33 L 268 29 L 265 25 C 263 25 261 19 265 19 C 268 11 271 20 275 16 Z"/>
<path style="fill: rgb(17, 17, 17);" d="M 275 35 C 275 35 277 41 277 44 C 277 48 272 50 270 47 C 268 50 263 48 263 44 C 263 40 265 35 265 35 L 264 41 C 264 44 268 41 270 43 C 272 41 276 44 276 41 L 275 35 Z"/>
<path style="fill: rgb(17, 17, 17);" d="M 275 56 C 275 56 276 57 276 58 C 274 58 272 64 270 64 L 269 64 C 268 62 265 59 263 58 C 263 57 264 56 264 56 C 264 58 275 58 275 56 Z"/>
<rect width="100" height="100" style="fill: rgb(113, 183, 255);" x="220" y="-110"/>
<path style="fill: rgb(255, 255, 255);" d="M 278 -89 C 277 -110 255 -102 261 -94 C 261 -86 264 -80 268 -77 C 273 -79 278 -82 278 -89 Z"/>
<path style="fill: rgb(17, 17, 17);" d="M 264 -96 C 263 -96 261 -86 267 -83 L 267 -79 C 264 -78 261 -77 260 -75 C 257 -70 259 -63 258 -59 L 258 -44 L 260 -38 L 260 -43 L 262 -41 L 260 -45 L 261 -59 L 262 -71 C 263 -70 266 -60 264 -57 C 259 -49 263 -40 264 -32 L 265 -19 C 262 -16 258 -14 262 -14 C 264 -14 268 -15 267 -19 C 267 -26 269 -29 267 -33 C 268 -37 269 -42 269 -49 L 270 -49 C 270 -46 270 -40 272 -33 C 270 -28 272 -26 272 -19 C 272 -17 274 -14 276 -14 C 281 -14 276 -17 274 -19 L 275 -32 C 277 -41 279 -50 275 -57 C 272 -60 275 -70 276 -71 L 278 -59 L 279 -46 L 277 -41 L 279 -43 L 279 -38 L 281 -45 L 281 -59 C 280 -62 281 -71 278 -75 C 276 -78 274 -78 271 -79 L 271 -83 L 274 -87 C 276 -87 278 -93 274 -93 C 271 -101 267 -94 264 -96 Z"/>
<path style="fill: rgb(255, 255, 255);" d="M 264 -78 C 264 -78 262 -72 262 -69 C 262 -65 267 -63 269 -66 C 271 -63 276 -65 276 -69 C 276 -73 274 -78 274 -78 L 275 -72 C 275 -69 271 -72 269 -70 C 267 -72 263 -69 263 -72 L 264 -78 Z"/>
<path style="fill: rgb(255, 255, 255);" d="M 264 -57 C 264 -57 263 -56 263 -55 C 265 -55 267 -49 269 -49 L 270 -49 C 271 -51 274 -54 276 -55 C 276 -56 275 -57 275 -57 C 275 -55 264 -55 264 -57 Z"/>
<path style="fill: rgb(17, 17, 17);" d="M 496 33 L 497 28 C 499 26 498 22 497 23 C 497 13 484 13 484 23 C 483 22 482 26 484 28 L 485 33 L 475 41 L 471 56 L 474 70 L 476 75 L 479 77 L 477 72 L 479 73 L 477 68 L 476 57 L 479 46 L 480 61 L 481 93 L 476 97 L 479 99 L 486 95 L 490 68 L 495 96 L 501 99 L 505 98 L 500 94 L 501 61 L 501 46 L 504 57 L 504 68 L 502 73 L 504 72 L 502 77 L 504 76 L 507 70 L 509 56 L 506 41 L 496 33 Z"/>
<path style="fill: rgb(255, 255, 255);" d="M 484 28 L 485 34 L 491 38 L 496 33 L 497 27 L 495 33 L 492 31 L 489 31 L 486 33 L 484 28 Z"/>
<path style="fill: rgb(255, 255, 255);" d="M 484 34 C 484 34 482 31 482 31 L 481 36 L 475 41 L 472 48 L 478 52 L 479 48 L 479 62 L 502 65 L 501 48 L 502 52 L 509 49 L 506 41 L 499 35 C 499 35 499 32 499 32 L 496 35 L 490 45 L 484 34 Z"/>
<g id="Watch" transform="matrix(1, 0, 0, 1, 220, 0)">
<path style="fill: rgb(17, 17, 17);" d="M 61 67 L 58 67 L 58 65 L 61 65 L 61 64 L 62 63 L 62 69 L 61 68 L 61 67 Z"/>
<path style="fill: rgb(255, 255, 255);" d="M 62 63 L 62 69 C 63 68 63 64 62 63 Z"/>
</g>
<rect width="100" height="100" style="fill: rgb(113, 183, 255);" y="110" x="-110"/>
<path style="stroke: rgb(255, 255, 255); stroke-linecap: round; stroke-linejoin: round; fill: rgb(255, 255, 255);" d="M 485 -19 L 485 -16 L 489 -16 L 490 -19 L 491 -19 L 492 -16 L 496 -16 L 496 -19 L 485 -19 Z"/>
<rect width="100" height="100" style="fill: rgb(113, 183, 255);" y="110"/>
<rect width="100" height="100" style="fill: rgb(113, 183, 255);" y="110" x="-220"/>
<path style="fill: rgb(255, 255, 255);" d="M -179 149 L -179 177 C -179 183 -155 183 -155 177 L -155 149 C -155 155 -179 155 -179 149 Z"/>
<path style="fill: rgb(17, 17, 17);" d="M -179 149 C -179 155 -155 155 -155 149 C -155 143 -179 143 -179 149 Z"/>
<path style="fill: rgb(17, 17, 17);" d="M -197 131 C -200 135 -183 152 -179 149 C -176 144 -192 128 -197 131 Z"/>
<path style="fill: rgb(17, 17, 17);" d="M -176 155 L -176 175 C -176 178 -158 178 -158 175 L -158 155 C -158 158 -176 158 -176 155 Z"/>
<rect width="100" height="100" style="fill: rgb(113, 183, 255);" y="220" x="-220"/>
<path style="fill: rgb(255, 255, 255);" d="M 35 179 C 32 179 32 182 32 182 C 32 184 35 184 35 184 L 67 184 C 64 184 64 179 67 179 L 35 179 Z"/>
<path style="fill: rgb(17, 17, 17);" d="M 35 139 C 32 139 32 141 32 141 C 32 141 32 179 32 182 C 32 182 32 179 35 179 L 35 139 Z"/>
<path style="fill: rgb(17, 17, 17);" d="M 35 139 L 35 179 L 67 179 L 67 139 L 35 139 Z"/>
<path style="fill: none; stroke: rgb(255, 255, 255); stroke-width: 3px;" d="M 43 166 L 59 166 L 51 149 L 43 166 Z"/>
<path style="fill: rgb(255, 255, 255);" d="M -175 260 L -176 287 L -171 296 L -164 285 L -166 257 L -175 260 Z"/>
<path style="stroke: rgb(17, 17, 17); fill: none;" d="M -181 261 L -158 255"/>
<path style="fill: rgb(17, 17, 17);" d="M -173 259 L -173 245 L -168 244 L -168 258 L -173 259 Z"/>
<rect width="100" height="100" style="fill: rgb(113, 183, 255);" y="330" x="-220"/>
<path style="fill: rgb(17, 17, 17);" d="M -167 389 L -156 401 L -150 401 L -149 399 L -149 394 L -160 382 L -166 381 L -168 383 L -167 389 Z"/>
<path style="fill: rgb(255, 255, 255);" d="M -187 366 L -184 366 L -168 383 L -166 381 L -182 365 L -182 362 L -188 359 L -189 360 L -187 366 Z"/>
<rect width="100" height="100" style="fill: rgb(113, 183, 255);" y="440" x="-220"/>
<path style="fill: rgb(17, 17, 17);" d="M -163 484 L -165 482 L -151 468 L -148 471 L -163 484 Z"/>
<path style="fill: rgb(255, 255, 255);" d="M -162 485 L -165 482 L -192 510 L -182 506 L -162 485 Z"/>
<rect width="100" height="100" style="fill: rgb(113, 183, 255);" y="660" x="-110"/>
<path style="fill: rgb(255, 255, 255);" d="M -79 724 L -83 696 C -76 689 -48 713 -36 707 L -40 722 C -59 734 -65 715 -79 724 Z"/>
<rect width="100" height="100" style="fill: rgb(113, 183, 255);" y="330" x="-110"/>
<path style="fill: rgb(255, 255, 255);" d="M -63 371 L -38 399 L -47 404 L -44 397 L -51 399 L -50 395 L -55 395 L -53 388 L -58 387 L -69 375 C -79 380 -90 367 -79 358 C -68 348 -60 361 -63 371 Z"/>
<ellipse style="fill: rgb(17, 17, 17);" cx="-76" cy="362" rx="3" ry="3"/>
<rect width="100" height="100" style="fill: rgb(113, 183, 255);" y="220" x="-110"/>
<rect width="100" height="100" style="fill: rgb(113, 183, 255);" x="660"/>
<rect width="100" height="100" style="fill: rgb(113, 183, 255);" x="550" y="220"/>
<path style="fill: rgb(17, 17, 17);" d="M 602 250 L 598 250 C 602 249 600 242 600 242 C 591 228 581 241 592 252 L 587 257 L 582 269 L 583 283 L 580 290 L 583 288 L 585 285 L 588 286 L 586 282 L 586 270 L 591 264 L 592 279 L 587 313 L 582 318 L 585 319 L 591 316 L 600 287 L 607 315 L 614 319 L 616 317 L 610 312 L 608 280 L 604 257 L 611 247 L 612 230 L 614 228 L 614 225 L 611 224 L 611 220 L 610 221 L 610 226 L 608 225 L 610 229 L 606 244 L 602 250 Z"/>
<path style="fill: rgb(255, 255, 255);" d="M 596 238 C 594 232 581 234 587 243 C 587 241 591 237 596 238 Z"/>
<path style="fill: rgb(17, 17, 17);" d="M 597 238 C 609 233 592 234 588 241 C 592 239 592 238 597 238 Z"/>
<path style="fill: rgb(255, 255, 255);" d="M 594 252 L 589 250 L 589 253 L 586 256 L 583 264 L 589 267 L 590 266 L 591 279 L 610 282 L 606 257 L 608 252 L 603 248 L 599 250 L 598 261 L 594 252 Z"/>
<rect width="100" height="100" style="fill: rgb(113, 183, 255);" y="220"/>
<path style="fill: rgb(217, 176, 105);" d="M -11 7 C -49 48 -77 69 -136 92 L -177 94 L -115 12 L -11 7 Z"/>
<path style="fill: rgb(183, 148, 88);" d="M -151 60 L -90 71 C -90 71 -118 85 -136 92 L -177 94 L -151 60 Z"/>
<path style="fill: rgb(17, 17, 17);" d="M -124 30 L -122 29 L -122 27 L -119 24 L -117 19 L -115 20 L -111 16 L -103 19 L -105 26 L -107 28 L -107 30 L -112 32 L -116 35 L -117 35 L -118 36 L -116 46 L -124 60 L -138 70 L -144 73 L -147 73 L -142 70 L -144 69 L -139 67 L -128 58 L -123 48 L -150 58 L -128 29 L -124 30 Z"/>
<path d="M -30 157 C -30 164 -35 170 -44 170 C -52 170 -52 170 -57 157 C -63 145 -52 145 -44 145 C -35 145 -30 150 -30 157 Z M -63 157 C -68 170 -68 170 -76 170 C -85 170 -90 164 -90 157 C -90 150 -85 145 -76 145 C -68 145 -57 145 -63 157 Z" style="fill: rgb(255, 255, 255); stroke: rgb(17, 17, 17); stroke-width: 4px;"/>
<path style="fill: rgb(17, 17, 17);" d="M -60 152 L -70 170 C -64 176 -56 176 -52 170 L -60 152 Z"/>
<path d="M -82 262 L -38 262 L -38 278 L -82 278 L -82 262 Z" style="fill: rgb(17, 17, 17);"/>
<ellipse style="fill: rgb(255, 255, 255); stroke-width: 4px; stroke: rgb(17, 17, 17);" cy="270" rx="14" ry="14" cx="-60"/>
<rect width="100" height="100" style="fill: rgb(113, 183, 255);" y="770" x="-110"/>
<path style="fill: rgb(255, 255, 255);" d="M -89 839 C -89 839 -97 828 -89 818 C -91 814 -80 795 -65 813 C -65 800 -42 794 -43 812 C -40 817 -36 829 -27 831 C -40 833 -40 817 -45 815 C -49 821 -64 818 -65 815 C -65 822 -85 827 -87 821 C -94 826 -89 839 -89 839 Z"/>
<rect width="100" height="100" style="fill: rgb(113, 183, 255);" y="110" x="110"/>
<path style="fill: rgb(255, 255, 255);" d="M 149 160 L 155 157 L 154 156 L 154 152 L 152 147 L 154 146 L 154 141 L 162 137 L 165 143 L 165 146 L 167 147 L 165 152 L 164 157 L 163 158 L 169 159 L 181 165 L 194 167 L 203 166 L 196 169 L 196 172 L 192 169 L 180 169 L 168 165 L 167 172 L 170 178 L 178 175 L 182 180 L 180 182 L 176 178 L 170 183 L 158 179 L 145 184 L 138 178 L 134 182 L 131 182 L 136 174 L 143 178 L 151 172 L 150 165 L 138 167 L 126 165 L 121 166 L 123 164 L 118 160 L 126 163 L 138 163 L 149 160 Z"/>
<path style="fill: rgb(17, 17, 17);" d="M 151 172 C 151 175 167 175 167 172 L 170 177 L 165 182 L 158 179 L 151 182 L 145 176 L 151 172 Z"/>
<g transform="matrix(0.347322, 0, 0, 0.347322, 65.785828, 93.669128)" style="">
<path d="M 292 158 C 292 163 288 167 282 167 C 276 167 276 167 272 158 C 268 149 276 149 282 149 C 288 149 292 153 292 158 Z M 268 158 C 264 167 264 167 258 167 C 252 167 248 163 248 158 C 248 153 252 149 258 149 C 264 149 272 149 268 158 Z" style="fill: rgb(255, 255, 255); stroke: rgb(17, 17, 17); stroke-width: 3px;"/>
<path style="fill: rgb(17, 17, 17);" d="M 270 154 L 263 167 C 267 172 273 172 276 167 L 270 154 Z"/>
</g>
<path style="fill: rgb(255, 255, 255);" d="M 695 57 C 692 55 685 57 682 57 C 663 51 681 45 698 42 C 699 38 704 29 709 30 C 709 34 712 42 712 42 L 737 47 C 737 39 745 28 745 29 C 742 40 743 54 749 61 C 749 62 741 59 738 52 L 727 55 L 728 59 L 724 56 L 711 60 L 713 70 C 709 71 699 66 698 62 L 686 59 C 688 55 700 59 695 57 Z"/>
<ellipse style="fill: rgb(17, 17, 17);" cx="685" cy="53" rx="1" ry="1"/>
<path style="fill: rgb(17, 17, 17);" d="M 601 233 L 599 233 L 599 227 L 601 227 L 601 233 Z" transform="matrix(0.882477, 0.470356, -0.470356, 0.882477, 178.695807, -255.183241)"/>
<path style="fill: rgb(255, 255, 255);" d="M 597 232 L 595 232 L 595 243 L 596 241 L 597 232 Z" transform="matrix(0.882477, 0.470356, -0.470356, 0.882477, 181.753384, -252.420392)"/>
<path style="fill: rgb(255, 0, 0);" d="M 593 241 C 595 241 594 240 593 250 C 592 243 592 241 593 241 Z"/>
<path style="fill: rgb(255, 2, 0);" d="M 594 252 L 592 251 L 592 254 L 596 269 L 595 260 L 594 252 Z"/>
<rect width="100" height="100" style="fill: rgb(113, 183, 255);" x="550" y="330"/>
<path style="fill: rgba(255, 255, 255, 0.5);" transform="matrix(1.364846, 0, 0, 1.364846, 131.986359, -149.558762)" d="M 316 412 A 36 36 0 0 1 307 387 L 343 388 Z" bx:shape="pie 343 388 0 36 229 272 1@098b9258"/>
<path style="fill: rgba(255, 255, 255, 0.5);" transform="matrix(1.364846, 0, 0, 1.364846, 131.986359, -149.558762)" d="M 320 361 A 36 36 0 0 1 343 352 L 343 388 Z" bx:shape="pie 343 388 0 36 320 360 1@792bdfe0"/>
<path style="fill: rgba(255, 255, 255, 0.5);" transform="matrix(1.364846, 0, 0, 1.364846, 131.986359, -149.558762)" d="M 367 415 A 36 36 0 0 1 342 424 L 343 388 Z" bx:shape="pie 343 388 0 36 139 181 1@4c6ed35f"/>
<path style="fill: rgba(255, 255, 255, 0.5);" transform="matrix(1.364846, 0, 0, 1.364846, 131.986359, -149.558762)" d="M 366 360 A 36 36 0 0 1 379 388 L 343 388 Z" bx:shape="pie 343 388 0 36 39 90 1@6949ff8c"/>
<path d="M 18 272 L 83 272 L 81 288 L 20 288 L 18 272 Z" style="fill: rgb(17, 17, 17);"/>
<path d="M 18 272 L 83 272 L 65 253 L 34 253 L 18 272 Z" style="fill: rgb(255, 255, 255);"/>
<path d="M 49 256 L 51 256 L 53 267 L 47 267 L 49 256 Z" style="fill: rgb(17, 17, 17);"/>
<path d="M 42 260 L 58 260 L 59 262 L 41 262 L 42 260 Z" style="fill: rgb(17, 17, 17);"/>
<rect width="100" height="100" style="fill: rgb(113, 183, 255);" y="220" x="-330"/>
<path style="fill: rgb(255, 255, 255);" d="M -293 265 L -269 291 L -256 295 L -260 278 L -287 256 L -293 265 Z"/>
<path style="stroke: rgb(17, 17, 17); fill: none; stroke-width: 2px;" d="M -298 273 L -281 246"/>
<path style="fill: rgb(17, 17, 17);" d="M -293 264 L -305 250 L -302 244 L -288 257 L -293 264 Z"/>
<rect width="100" height="100" style="fill: rgb(113, 183, 255);" y="550" x="-110"/>
<ellipse style="fill: rgb(255, 255, 255);" cy="600" rx="31" ry="11" cx="-60"/>
<ellipse style="fill: rgb(255, 255, 255);" cy="608" rx="21" ry="6" cx="-60"/>
<ellipse style="fill: rgb(221, 221, 221);" cy="601" rx="21" ry="6" cx="-60"/>
<rect width="100" height="100" style="fill: rgb(113, 183, 255);" y="330"/>
<path d="M 38 370 C 38 365 47 361 47 355 L 46 352 C 46 350 55 350 55 352 L 54 355 C 54 361 63 365 63 370 L 63 406 C 63 410 38 410 38 406 L 38 370 Z" style="fill: rgb(255, 255, 255);"/>
<path d="M 40 375 C 40 377 61 377 61 375 L 61 402 C 61 405 40 405 40 402 L 40 375 Z" style="fill: rgb(17, 17, 17);"/>
<path d="M 53 352 C 53 353 48 353 48 352 L 47 349 C 47 348 54 348 54 349 L 53 352 Z" style="fill: rgb(17, 17, 17);"/>
<rect width="100" height="100" style="fill: rgb(113, 183, 255);" y="330" x="-330"/>
<rect width="100" height="100" style="fill: rgb(113, 183, 255);" x="550" y="440"/>
<path style="fill: rgba(255, 255, 255, 0.5);" d="M 633 527 C 623 535 611 540 599 539 L 600 490 L 633 527 Z M 632 452 C 643 461 649 475 649 490 L 600 490 L 632 452 Z M 569 453 C 577 445 589 441 600 441 L 600 490 L 569 453 Z M 563 523 C 555 513 551 501 551 489 L 600 490 L 563 523 Z"/>
<ellipse style="fill: none; stroke-width: 10px; stroke: rgb(17, 0, 15);" cy="380" rx="25" ry="25" cx="-280"/>
<ellipse style="fill: none; stroke: rgb(255, 255, 255); stroke-width: 10px; stroke-dasharray: 19;" cy="380" rx="25" ry="25" cx="-280"/>
<rect width="100" height="100" style="fill: rgb(113, 183, 255);" y="440" x="-330"/>
<path d="M -254 490 L -254 496 C -254 503 -266 509 -280 509 C -294 509 -306 503 -306 496 L -306 490 L -254 490 Z" style="fill: rgb(201, 179, 34);"/>
<ellipse style="fill: rgb(242, 215, 40);" cy="490" rx="26" ry="13" cx="-280"/>
<rect width="100" height="100" style="fill: rgb(113, 183, 255);" y="550" x="-330"/>
<path style="fill: rgb(78, 78, 78);" d="M -310 594 L -298 580 L -253 599 L -265 618 L -310 594 Z"/>
<path style="fill: rgb(17, 17, 17);" d="M -310 594 L -306 611 L -264 633 L -254 614 L -253 599 L -265 618 L -310 594 Z"/>
<path style="fill: rgb(17, 17, 17);" d="M -307 593 L -298 582 L -255 600 L -265 616 L -307 593 Z"/>
<path style="fill: rgb(17, 17, 17);" d="M -296 567 L -298 580 L -253 599 C -245 600 -243 584 -249 583 L -296 567 Z"/>
<ellipse style="fill: rgb(243, 215, 40);" cx="-312" cy="617" rx="2" ry="2"/>
<path style="fill: rgb(243, 215, 40);" d="M -302 596 L -299 590 L -295 589 L -288 593 L -280 594 L -274 599 L -265 600 L -258 605 L -265 616 L -302 596 Z"/>
<ellipse style="fill: rgb(243, 215, 40);" cx="-309" cy="622" rx="2" ry="2"/>
<ellipse style="fill: rgb(243, 215, 40);" cx="-301" cy="622" rx="2" ry="2"/>
<path style="fill: rgb(78, 78, 78);" d="M -295 568 L -249 584 L -253 599 L -298 580 C -294 579 -293 571 -295 568 Z"/>
<rect width="100" height="100" style="fill: rgb(113, 183, 255);" y="440"/>
<path style="fill: rgb(255, 255, 255);" d="M 43 497 C 7 461 94 457 57 497 L 58 501 L 55 503 L 50 502 L 46 503 L 43 501 L 43 497 Z"/>
<path style="fill: rgb(17, 17, 17);" d="M 42 490 C 47 494 52 486 47 482 C 44 480 38 486 42 490 Z"/>
<path style="fill: rgb(17, 17, 17);" d="M 58 490 C 53 494 48 486 53 482 C 56 480 62 486 58 490 Z"/>
<path style="fill: rgb(17, 17, 17);" d="M 48 497 C 50 494 50 494 53 497 C 53 499 48 499 48 497 Z" bx:origin="1 1"/>
<path style="fill: rgb(255, 255, 255);" d="M 43 506 C 48 516 59 507 58 506 L 56 504 L 48 505 L 45 504 L 43 506 Z"/>
<rect width="100" height="100" style="fill: rgb(113, 183, 255);" y="550"/>
<path d="M 38 590 C 38 585 47 581 47 575 L 46 572 C 46 570 55 570 55 572 L 54 575 C 54 581 63 585 63 590 L 63 626 C 63 630 38 630 38 626 L 38 590 Z" style="fill: rgb(255, 255, 255);"/>
<path d="M 40 595 C 40 597 61 597 61 595 L 61 622 C 61 625 40 625 40 622 L 40 595 Z" style="fill: rgb(17, 17, 17);"/>
<path d="M 53 572 C 53 573 48 573 48 572 L 47 569 C 47 568 54 568 54 569 L 53 572 Z" style="fill: rgb(17, 17, 17);"/>
<path style="fill: rgb(255, 255, 255);" d="M 48 613 C 35 601 66 599 54 613 L 54 614 L 53 615 L 49 615 L 48 614 L 48 613 Z"/>
<path style="fill: rgb(17, 17, 17);" d="M 48 611 C 49 613 51 609 50 608 C 49 607 47 609 48 611 Z"/>
<path style="fill: rgb(17, 17, 17);" d="M 54 611 C 53 612 51 609 52 608 C 53 607 55 609 54 611 Z"/>
<path style="fill: rgb(17, 17, 17);" d="M 50 613 C 51 612 51 612 52 613 C 52 614 50 614 50 613 Z" bx:origin="1 1"/>
<path style="fill: rgb(255, 255, 255);" d="M 49 616 C 50 620 53 617 53 616 L 49 616 Z"/>
<rect width="100" height="100" style="fill: rgb(113, 183, 255);" x="550"/>
<path style="fill: rgb(17, 17, 17);" d="M 574 76 L 572 76 C 573 75 566 71 566 71 C 552 76 556 87 570 83 C 572 83 573 83 573 83 L 576 91 L 585 98 L 600 98 L 605 99 L 606 98 L 602 96 L 603 94 L 599 95 L 588 95 L 582 88 L 632 92 L 637 97 L 638 94 L 634 88 L 610 82 L 641 82 L 645 74 L 644 72 L 638 78 L 589 73 L 599 71 L 609 71 L 613 74 L 612 72 L 616 70 L 616 68 L 610 68 L 599 66 L 583 70 L 574 76 Z"/>
<path style="fill: rgb(255, 255, 255);" d="M 560 74 C 554 74 553 87 563 84 C 560 83 559 79 560 74 Z"/>
<path style="fill: rgb(17, 17, 17);" d="M 561 74 C 557 61 555 78 562 83 C 560 79 560 79 561 74 Z"/>
<path style="fill: rgb(255, 255, 255);" d="M 573 80 L 570 84 L 573 85 C 573 85 576 91 576 91 L 581 96 L 587 91 L 584 89 L 597 93 L 603 87 L 602 78 L 607 73 L 592 73 L 594 66 L 583 69 L 575 75 L 584 78 C 584 78 573 80 573 80 Z"/>
<path style="stroke: rgb(255, 0, 0); stroke-linecap: round; fill: none;" d="M 601 68 L 603 70"/>
<rect width="100" height="100" style="fill: rgb(113, 183, 255);" x="550" y="110"/>
<path style="fill: rgb(17, 17, 17);" d="M 574 186 L 572 186 C 573 185 566 181 566 181 C 552 186 556 197 570 193 C 572 193 573 193 573 193 L 576 201 L 585 208 L 600 208 L 605 209 L 606 208 L 602 206 L 603 204 L 599 205 L 588 205 L 582 198 L 632 202 L 637 207 L 638 204 L 634 198 L 610 192 L 641 192 L 645 184 L 644 182 L 638 188 L 589 183 L 599 181 L 609 181 L 613 184 L 612 182 L 616 180 L 616 178 L 610 178 L 599 176 L 583 180 L 574 186 Z"/>
<path style="fill: rgb(255, 255, 255);" d="M 560 184 C 554 184 553 197 563 194 C 560 193 559 189 560 184 Z"/>
<path style="fill: rgb(17, 17, 17);" d="M 561 184 C 557 171 555 188 562 193 C 560 189 560 189 561 184 Z"/>
<path style="fill: rgb(255, 255, 255);" d="M 573 190 L 570 194 L 573 195 C 573 195 576 201 576 201 L 581 206 L 587 201 L 584 199 L 597 203 L 603 197 L 602 188 L 607 183 L 592 183 L 594 176 L 583 179 L 575 185 L 584 188 C 584 188 573 190 573 190 Z"/>
<path style="stroke: rgb(255, 0, 0); stroke-linecap: round; fill: none;" d="M 601 178 L 603 180"/>
<path style="fill: rgb(255, 2, 0);" d="M 562 186 C 563 186 563 186 563 186 C 563 190 565 193 566 194 C 566 194 562 192 562 186 Z"/>
<path style="fill: rgb(17, 17, 17);" d="M 564 176 L 562 176 L 562 170 L 564 170 L 564 176 Z"/>
<path style="fill: rgb(255, 255, 255);" d="M 564 176 L 562 176 L 562 186 L 563 186 L 564 176 Z"/>
<path style="fill: rgb(216, 107, 90);" d="M -46 601 C -46 589 -73 589 -73 601 C -75 603 -52 606 -46 601 Z"/>
<rect width="100" height="100" style="fill: rgb(113, 183, 255);" x="440" y="110"/>
<path style="fill: rgb(17, 17, 17);" d="M 511 168 L 510 164 C 512 163 513 159 512 159 C 516 150 504 145 500 154 C 499 152 497 156 498 158 L 497 163 L 489 166 L 483 176 L 472 182 L 472 187 L 474 190 L 475 184 L 476 187 L 478 183 L 487 180 L 490 174 L 485 187 L 470 194 L 469 188 L 466 191 L 465 199 L 488 195 L 486 202 L 481 199 L 483 208 L 486 209 L 504 195 L 508 184 L 509 191 L 508 199 L 504 199 L 506 202 L 505 205 L 508 206 L 512 201 L 513 190 L 515 180 L 511 168 Z"/>
<path style="fill: rgb(255, 255, 255);" d="M 498 158 L 497 163 L 500 168 L 508 167 L 510 164 L 507 166 L 504 164 L 501 163 L 498 163 L 498 158 Z"/>
<path style="fill: rgb(255, 255, 255);" d="M 496 163 L 496 160 L 494 163 L 488 165 L 483 175 L 488 178 L 484 187 L 505 196 L 508 187 L 515 185 L 516 180 L 512 168 L 512 164 L 510 166 L 500 175 L 496 163 Z"/>
<path style="stroke: rgb(255, 0, 0); stroke-linecap: round; fill: none;" d="M 512 190 L 510 195"/>
<rect width="100" height="100" style="fill: rgb(113, 183, 255);" y="440" x="-110"/>
<path style="fill: rgb(212, 212, 212);" d="M -72 485 L -84 521 L -92 516 L -85 515 L -90 510 L -86 509 L -89 504 L -81 503 L -83 498 L -78 482 C -88 476 -82 460 -69 465 C -54 470 -62 483 -72 485 Z"/>
<path style="fill: rgb(237, 237, 237);" d="M -60 486 L -52 523 L -62 523 L -56 518 L -63 516 L -60 513 L -65 511 L -59 506 L -63 502 L -67 486 C -78 486 -81 469 -67 467 C -52 464 -52 479 -60 486 Z"/>
<path style="fill: rgb(255, 255, 255);" d="M -53 475 L -28 503 L -37 508 L -34 501 L -41 503 L -40 499 L -45 499 L -43 492 L -48 491 L -59 479 C -69 484 -80 471 -69 462 C -58 452 -50 465 -53 475 Z"/>
<ellipse style="fill: rgb(17, 17, 17);" cx="-66" cy="466" rx="3" ry="3"/>
<path style="fill: none; stroke-width: 2px; stroke: rgb(255, 255, 255); stroke-linecap: round;" d="M -66 466 C -65 455 -75 453 -76 464"/>
<rect width="100" height="100" style="fill: rgb(113, 183, 255);" y="550" x="-220"/>
<path style="fill: rgb(17, 17, 17);" d="M -163 594 L -165 592 L -151 578 L -148 581 L -163 594 Z"/>
<path style="fill: rgb(255, 255, 255);" d="M -162 595 L -165 592 L -192 620 L -182 616 L -162 595 Z"/>
<path style="fill: rgb(255, 0, 0);" d="M -179 613 L -184 612 L -192 620 L -182 616 L -179 613 Z"/>
<rect width="100" height="100" style="fill: rgb(113, 183, 255);" y="660"/>
<path style="fill: rgb(255, 255, 255);" d="M 22 723 L 28 684 L 74 691 L 68 731 L 22 723 Z"/>
<path style="fill: rgb(237, 237, 237);" d="M 22 723 L 27 730 L 72 737 L 78 698 L 74 691 L 68 731 L 22 723 Z"/>
<path style="stroke: rgb(0, 0, 0); fill: none; stroke-width: 4px;" d="M 47 690 C 46 693 42 697 46 699 C 53 703 57 698 64 702 C 67 704 67 711 62 711 C 53 712 43 705 34 706 C 31 706 31 713 33 714 C 38 717 46 714 51 717 C 54 720 50 722 50 724"/>
<rect width="100" height="100" style="fill: rgb(113, 183, 255);" y="770"/>
<path style="fill: rgb(255, 255, 255);" d="M 22 833 L 28 794 L 74 801 L 68 841 L 22 833 Z"/>
<path style="fill: rgb(237, 237, 237);" d="M 22 833 L 27 840 L 72 847 L 78 808 L 74 801 L 68 841 L 22 833 Z"/>
<path style="stroke: rgb(0, 0, 0); fill: none; stroke-width: 4px;" d="M 48 802 C 47 804 44 807 47 808 C 52 811 55 809 59 811 C 61 812 62 817 58 817 C 52 817 45 813 38 813 C 36 813 36 818 38 819 C 41 821 47 819 50 821 C 52 823 48 829 48 829"/>
<path style="stroke: rgb(0, 0, 0); fill: none; stroke-width: 3px;" d="M 55 826 L 48 831 L 44 825"/>
<rect width="100" height="100" style="fill: rgb(113, 183, 255);" y="660" x="-220"/>
<path style="fill: rgb(17, 17, 17);" d="M -158 703 L -163 699 L -142 678 L -135 684 L -158 703 Z"/>
<path style="fill: rgb(255, 255, 255);" d="M -155 706 L -163 699 L -203 740 L -185 737 L -155 706 Z"/>
<path style="fill: rgb(255, 0, 0);" d="M -178 730 L -191 728 L -203 740 L -185 737 L -178 730 Z"/>
<rect width="100" height="100" style="fill: rgb(25, 75, 223);" y="440" x="110"/>
<path style="fill: rgb(20, 61, 182);" d="M 152 503 C 89 462 214 428 173 498 L 176 503 L 173 508 L 164 507 L 158 511 L 153 508 L 152 503 Z"/>
<path style="fill: rgb(25, 75, 223);" d="M 148 493 C 158 498 162 485 153 479 C 148 479 142 489 148 493 Z"/>
<path style="fill: rgb(25, 75, 223);" d="M 172 488 C 166 496 156 486 162 478 C 166 475 176 482 172 488 Z"/>
<path style="fill: rgb(25, 75, 223);" d="M 160 502 C 162 497 162 497 167 500 C 167 502 160 504 160 502 Z" bx:origin="1 1"/>
<path style="fill: rgb(19, 61, 182);" d="M 155 516 C 166 527 179 511 177 511 L 174 508 L 162 513 L 157 512 L 155 516 Z"/>
<path style="fill: rgb(15, 48, 147);" d="M 102 467 C 131 466 160 443 187 443 C 154 450 128 472 102 467 Z"/>
<path style="fill: rgb(15, 48, 147);" d="M 118 479 C 155 478 158 445 203 447 C 147 453 162 490 118 479 Z"/>
<path style="fill: rgb(15, 48, 147);" d="M 114 493 C 155 501 162 456 189 461 C 154 467 156 510 114 493 Z"/>
<path style="fill: rgb(15, 48, 147);" d="M 126 505 C 167 508 175 462 203 463 C 171 477 171 513 126 505 Z"/>
<path style="fill: rgb(15, 48, 147);" d="M 119 510 C 165 514 175 494 200 481 C 182 494 165 519 119 510 Z"/>
<path style="fill: rgb(15, 48, 147);" d="M 115 525 C 161 521 184 500 206 483 C 191 499 162 528 115 525 Z"/>
<path style="fill: rgb(15, 48, 147);" d="M 140 534 C 175 533 178 507 209 496 C 186 507 186 533 140 534 Z"/>
<path style="fill: rgb(15, 48, 147);" d="M 133 542 C 169 543 201 510 215 504 C 197 515 191 543 133 542 Z"/>
<path style="fill: rgb(15, 48, 147);" d="M 117 457 C 140 450 138 442 165 444 C 139 447 143 455 117 457 Z"/>
<path style="fill: rgb(15, 48, 147);" d="M 169 462 C 178 455 196 449 216 452 C 193 452 182 457 169 462 Z"/>
<path style="fill: rgb(15, 48, 147);" d="M 106 516 C 113 518 115 521 139 517 C 117 523 112 521 106 516 Z"/>
<path style="fill: rgb(15, 48, 147);" d="M 106 444 C 116 446 123 445 148 436 C 127 448 116 452 106 444 Z"/>
<path style="fill: rgb(15, 48, 147);" d="M 104 527 C 113 530 136 531 148 527 C 130 534 118 535 104 527 Z"/>
<path style="fill: rgb(15, 48, 147);" d="M 187 482 C 196 470 203 467 220 467 C 204 470 199 473 187 482 Z"/>
<path style="fill: rgb(15, 48, 147);" d="M 175 546 C 184 534 199 532 207 523 C 203 538 188 534 175 546 Z"/>
<path style="fill: rgb(15, 48, 147);" d="M 103 483 C 110 486 116 487 126 486 C 119 488 110 490 103 483 Z"/>
<rect width="100" height="100" style="fill: rgb(25, 75, 223);" y="550" x="110"/>
<rect width="100" height="100" style="fill: rgb(25, 75, 223);" y="770" x="110"/>
<path style="fill: rgb(19, 61, 182);" d="M 157 622 L 162 623 L 174 618 L 177 621 C 179 621 166 637 155 626 Z M 152 613 C 89 572 214 538 173 608 L 176 613 L 173 618 L 164 617 L 158 621 L 153 618 Z M 162 588 C 156 596 166 606 172 598 C 176 592 166 585 162 588 Z M 148 603 C 158 608 162 595 153 589 C 148 589 142 599 148 603 Z M 167 610 C 162 607 162 607 160 612 C 160 614 167 612 167 610 Z M 179 632 C 192 622 197 635 214 626 C 236 676 144 659 154 654 C 164 649 168 641 179 632 Z M 184 575 C 185 557 220 586 219 600 C 218 639 193 622 196 607 C 199 593 183 585 184 575 Z M 177 561 C 161 547 202 539 212 548 C 220 555 216 576 207 569 C 201 564 184 567 177 561 Z M 124 581 C 106 586 121 547 132 544 C 142 540 170 555 154 560 C 140 565 132 578 124 581 Z M 103 593 C 103 565 138 595 138 618 C 138 639 109 657 115 627 C 119 617 103 605 103 593 Z M 134 659 C 124 653 135 632 143 629 C 149 626 162 637 160 642 C 158 649 139 662 134 659 Z"/>
<path style="fill: rgb(15, 48, 147);" d="M 169 572 C 178 565 196 559 216 562 C 193 562 182 567 169 572 Z M 106 554 C 116 556 123 555 148 546 C 127 558 116 562 106 554 Z M 117 567 C 140 560 138 552 165 554 C 139 557 143 565 117 567 Z M 102 577 C 131 576 160 553 187 553 C 154 560 128 582 102 577 Z M 118 589 C 155 588 158 555 203 557 C 147 563 162 600 118 589 Z M 114 603 C 155 611 162 566 189 571 C 154 577 156 620 114 603 Z M 126 615 C 167 618 175 572 203 573 C 171 587 171 623 126 615 Z M 119 620 C 165 624 175 604 200 591 C 182 604 165 629 119 620 Z M 115 635 C 161 631 184 610 206 593 C 191 609 162 638 115 635 Z M 140 644 C 175 643 178 617 209 606 C 186 617 186 643 140 644 Z M 215 614 C 197 625 191 652 135 652 C 170 652 201 620 215 614 Z M 175 656 C 184 644 199 642 207 633 C 203 648 188 644 175 656 Z M 187 592 C 196 580 203 577 220 577 C 204 580 199 583 187 592 Z M 103 593 C 110 596 116 597 126 596 C 119 598 110 600 103 593 Z M 106 626 C 113 628 115 631 139 627 C 117 633 112 631 106 626 Z M 104 637 C 113 640 136 641 148 637 C 130 644 118 645 104 637 Z"/>
<path style="fill: rgb(19, 61, 182);" d="M 157 842 L 162 843 C 159 844 157 845 155 846 L 157 842 Z M 177 841 C 179 841 168 854 158 848 C 164 846 170 843 175 839 L 177 841 Z M 173 828 C 167 832 161 836 153 838 L 152 834 C 156 833 158 831 161 829 C 161 830 160 831 160 832 C 160 834 167 832 167 830 C 165 829 164 828 163 828 C 170 823 175 816 181 810 C 180 815 177 821 173 828 Z M 176 833 L 174 836 C 173 837 172 837 171 838 L 164 837 L 158 841 L 156 840 C 163 838 169 834 175 831 L 176 833 Z M 162 808 C 158 813 160 818 164 820 C 159 824 155 828 149 831 C 146 829 144 827 142 825 C 144 824 145 823 147 822 L 148 823 C 156 827 160 819 157 813 C 163 806 169 799 179 794 C 180 796 181 799 181 803 C 178 805 175 809 172 812 C 170 808 165 806 162 808 Z M 153 809 C 150 809 146 813 146 817 C 143 819 141 820 138 821 C 136 818 134 814 134 811 C 151 810 155 798 169 788 C 170 789 172 789 173 789 C 171 790 170 791 169 792 C 171 791 172 791 174 790 C 175 791 176 791 177 792 C 169 795 162 803 155 810 C 154 810 154 809 153 809 Z M 198 849 C 201 850 205 850 210 848 L 210 870 L 184 870 C 194 865 204 865 207 853 C 201 860 190 863 181 870 L 161 870 C 180 866 190 857 198 849 Z M 184 795 C 184 794 184 793 185 792 C 186 792 187 791 189 791 C 188 791 187 791 186 791 C 188 788 193 790 199 793 C 194 794 189 796 185 800 C 184 798 184 797 184 795 Z M 204 843 C 206 841 208 839 210 838 L 210 844 C 208 844 206 844 204 843 Z M 202 842 C 200 840 198 838 197 835 C 200 831 204 828 209 826 C 204 828 200 830 196 832 C 196 831 196 829 196 827 C 196 826 196 824 196 823 C 200 819 203 816 206 813 C 203 816 199 818 196 821 C 196 819 195 817 194 815 C 196 814 198 812 200 811 C 198 812 196 813 194 814 C 193 813 192 811 191 809 C 197 805 201 802 207 800 C 208 801 209 802 210 803 L 210 836 C 208 838 205 840 202 842 Z M 207 789 C 203 786 196 786 189 785 C 195 783 202 782 210 782 L 210 790 C 209 790 208 790 207 789 Z M 185 784 C 183 784 181 783 179 783 C 186 780 193 778 203 777 C 192 777 184 778 177 781 C 175 779 174 778 174 777 C 178 775 182 774 187 773 C 182 773 178 774 173 775 C 173 773 174 771 176 770 L 210 770 L 210 781 C 201 781 192 782 185 784 Z M 124 801 C 119 802 117 801 116 797 C 123 796 129 794 136 792 C 132 796 128 800 124 801 Z M 122 774 C 123 773 124 771 125 770 L 136 770 C 130 772 126 773 122 774 Z M 154 780 C 151 781 148 783 145 785 C 135 789 125 793 116 795 C 115 790 117 784 120 778 C 126 777 132 775 141 770 L 155 770 C 156 771 158 773 158 774 C 138 773 138 781 117 787 C 141 785 139 778 159 775 C 159 777 158 779 154 780 Z M 123 809 C 121 809 120 809 118 809 C 120 810 123 810 125 810 C 128 814 131 818 134 823 C 128 824 122 824 114 823 C 123 827 130 828 136 827 C 137 829 137 832 138 834 C 134 835 130 835 126 835 C 130 836 134 836 138 836 C 138 837 138 837 138 838 C 138 839 138 840 138 840 C 132 841 126 841 119 840 C 126 841 132 842 138 842 C 137 844 137 846 136 847 C 125 849 119 849 115 849 C 115 848 115 848 115 847 C 117 842 114 836 110 830 L 110 817 C 115 819 121 817 126 816 C 119 817 115 816 110 815 L 110 802 C 114 802 119 805 123 809 Z M 132 862 C 137 861 142 859 148 857 C 144 858 139 859 133 859 C 134 857 136 856 137 854 C 142 853 147 852 152 851 C 156 853 159 857 160 860 C 155 862 148 864 140 864 C 148 864 155 863 160 861 C 160 862 160 862 160 862 C 159 864 158 866 155 869 C 154 869 153 870 152 870 L 130 870 C 130 867 131 864 132 862 Z M 143 849 C 144 848 146 848 147 849 C 145 849 143 850 140 851 C 141 850 142 849 143 849 Z M 115 855 C 121 855 127 855 132 855 C 131 857 129 858 127 860 C 123 860 119 859 115 859 C 114 857 114 854 114 850 C 119 851 125 851 136 848 C 135 849 135 851 134 852 C 128 853 122 854 115 855 Z M 134 806 C 137 795 151 788 163 788 C 154 794 146 802 134 806 Z M 181 850 C 186 848 189 848 193 848 C 185 854 176 860 166 864 C 169 861 172 858 177 854 C 178 853 180 852 181 850 Z M 200 794 C 202 795 204 797 206 798 C 199 800 195 803 190 808 C 189 807 188 805 187 804 C 191 800 195 797 200 794 Z M 122 863 C 120 863 118 863 117 862 C 119 862 120 862 122 863 Z"/>
<rect width="100" height="100" style="fill: rgb(25, 75, 223);" y="660" x="110"/>
<path style="fill: rgb(255, 255, 255);" d="M 145 701 C 145 715 148 747 160 747 C 172 747 175 715 175 701 C 175 664 145 664 145 701 Z"/>
<path style="fill: rgb(255, 255, 255);" d="M 159 816 C 159 819 160 828 162 828 C 164 828 165 819 165 816 C 165 812 159 812 159 816 Z"/>
<rect width="100" height="100" style="fill: rgb(25, 75, 223);" y="880" x="110"/>
<path style="fill: rgb(255, 255, 255);" d="M 155 922 C 155 928 156 944 160 944 C 164 944 165 928 165 922 C 165 915 155 915 155 922 Z"/>
<path style="fill: rgb(217, 176, 105);" d="M 147 696 C 149 669 171 669 173 696 C 173 694 147 694 147 696 Z"/>
<path style="fill: rgb(217, 176, 105);" d="M 160 745 C 155 745 151 737 150 728 C 150 730 170 730 170 728 C 169 737 165 745 160 745 Z"/>
<path style="fill: rgb(217, 176, 105);" d="M 173 699 C 173 702 173 706 172 710 C 172 713 148 713 148 710 C 147 706 147 702 147 699 C 147 697 173 697 173 699 Z"/>
<path style="fill: rgb(113, 183, 255);" d="M 153 726 L 149 716 L 159 717 L 159 727 L 153 726 Z"/>
<path style="fill: rgb(113, 183, 255);" d="M 167 726 L 171 716 L 161 717 L 161 727 L 167 726 Z"/>
<path style="fill: rgb(255, 255, 255);" d="M 151 707 L 150 701 L 156 701 L 155 707 L 151 707 Z"/>
<path style="fill: rgb(255, 255, 255);" d="M 165 707 L 164 701 L 170 701 L 169 707 L 165 707 Z"/>
<rect width="100" height="100" style="fill: rgb(25, 75, 223);" y="770" x="220"/>
<path style="fill: rgb(19, 61, 182);" d="M 267 842 L 272 843 C 269 844 267 845 265 846 L 267 842 Z M 287 841 C 289 841 278 854 268 848 C 274 846 280 843 285 839 L 287 841 Z M 283 828 C 277 832 271 836 263 838 L 262 834 C 266 833 268 831 271 829 C 271 830 270 831 270 832 C 270 834 277 832 277 830 C 275 829 274 828 273 828 C 280 823 285 816 291 810 C 290 815 287 821 283 828 Z M 286 833 L 284 836 C 283 837 282 837 281 838 L 274 837 L 268 841 L 266 840 C 273 838 279 834 285 831 L 286 833 Z M 272 808 C 268 813 270 818 274 820 C 269 824 265 828 259 831 C 256 829 254 827 252 825 C 254 824 255 823 257 822 L 258 823 C 266 827 270 819 267 813 C 273 806 279 799 289 794 C 290 796 291 799 291 803 C 288 805 285 809 282 812 C 280 808 275 806 272 808 Z M 263 809 C 260 809 256 813 256 817 C 253 819 251 820 248 821 C 246 818 244 814 244 811 C 261 810 265 798 279 788 C 280 789 282 789 283 789 C 281 790 280 791 279 792 C 281 791 282 791 284 790 C 285 791 286 791 287 792 C 279 795 272 803 265 810 C 264 810 264 809 263 809 Z M 308 849 C 311 850 315 850 320 848 L 320 870 L 294 870 C 304 865 314 865 317 853 C 311 860 300 863 291 870 L 271 870 C 290 866 300 857 308 849 Z M 294 795 C 294 794 294 793 295 792 C 296 792 297 791 299 791 C 298 791 297 791 296 791 C 298 788 303 790 309 793 C 304 794 299 796 295 800 C 294 798 294 797 294 795 Z M 314 843 C 316 841 318 839 320 838 L 320 844 C 318 844 316 844 314 843 Z M 312 842 C 310 840 308 838 307 835 C 310 831 314 828 319 826 C 314 828 310 830 306 832 C 306 831 306 829 306 827 C 306 826 306 824 306 823 C 310 819 313 816 316 813 C 313 816 309 818 306 821 C 306 819 305 817 304 815 C 306 814 308 812 310 811 C 308 812 306 813 304 814 C 303 813 302 811 301 809 C 307 805 311 802 317 800 C 318 801 319 802 320 803 L 320 836 C 318 838 315 840 312 842 Z M 317 789 C 313 786 306 786 299 785 C 305 783 312 782 320 782 L 320 790 C 319 790 318 790 317 789 Z M 295 784 C 293 784 291 783 289 783 C 296 780 303 778 313 777 C 302 777 294 778 287 781 C 285 779 284 778 284 777 C 288 775 292 774 297 773 C 292 773 288 774 283 775 C 283 773 284 771 286 770 L 320 770 L 320 781 C 311 781 302 782 295 784 Z M 234 801 C 229 802 227 801 226 797 C 233 796 239 794 246 792 C 242 796 238 800 234 801 Z M 232 774 C 233 773 234 771 235 770 L 246 770 C 240 772 236 773 232 774 Z M 264 780 C 261 781 258 783 255 785 C 245 789 235 793 226 795 C 225 790 227 784 230 778 C 236 777 242 775 251 770 L 265 770 C 266 771 268 773 268 774 C 248 773 248 781 227 787 C 251 785 249 778 269 775 C 269 777 268 779 264 780 Z M 233 809 C 231 809 230 809 228 809 C 230 810 233 810 235 810 C 238 814 241 818 244 823 C 238 824 232 824 224 823 C 233 827 240 828 246 827 C 247 829 247 832 248 834 C 244 835 240 835 236 835 C 240 836 244 836 248 836 C 248 837 248 837 248 838 C 248 839 248 840 248 840 C 242 841 236 841 229 840 C 236 841 242 842 248 842 C 247 844 247 846 246 847 C 235 849 229 849 225 849 C 225 848 225 848 225 847 C 227 842 224 836 220 830 L 220 817 C 225 819 231 817 236 816 C 229 817 225 816 220 815 L 220 802 C 224 802 229 805 233 809 Z M 242 862 C 247 861 252 859 258 857 C 254 858 249 859 243 859 C 244 857 246 856 247 854 C 252 853 257 852 262 851 C 266 853 269 857 270 860 C 265 862 258 864 250 864 C 258 864 265 863 270 861 C 270 862 270 862 270 862 C 269 864 268 866 265 869 C 264 869 263 870 262 870 L 240 870 C 240 867 241 864 242 862 Z M 253 849 C 254 848 256 848 257 849 C 255 849 253 850 250 851 C 251 850 252 849 253 849 Z M 225 855 C 231 855 237 855 242 855 C 241 857 239 858 237 860 C 233 860 229 859 225 859 C 224 857 224 854 224 850 C 229 851 235 851 246 848 C 245 849 245 851 244 852 C 238 853 232 854 225 855 Z M 244 806 C 247 795 261 788 273 788 C 264 794 256 802 244 806 Z M 291 850 C 296 848 299 848 303 848 C 295 854 286 860 276 864 C 279 861 282 858 287 854 C 288 853 290 852 291 850 Z M 310 794 C 312 795 314 797 316 798 C 309 800 305 803 300 808 C 299 807 298 805 297 804 C 301 800 305 797 310 794 Z M 232 863 C 230 863 228 863 227 862 C 229 862 230 862 232 863 Z"/>
<g transform="matrix(0.189024, 0.050649, -0.050649, 0.189024, 290.584442, 631.312195)" style="">
<path style="fill: rgb(255, 255, 255);" d="M 165 811 C 165 825 168 857 180 857 C 192 857 195 825 195 811 C 195 774 165 774 165 811 Z"/>
<path style="fill: rgb(217, 176, 105);" d="M 167 806 C 169 779 191 779 193 806 C 193 804 167 804 167 806 Z"/>
<path style="fill: rgb(217, 176, 105);" d="M 180 855 C 175 855 171 847 170 838 C 170 840 190 840 190 838 C 189 847 185 855 180 855 Z"/>
<path style="fill: rgb(217, 176, 105);" d="M 193 809 C 193 812 193 816 192 820 C 192 823 168 823 168 820 C 167 816 167 812 167 809 C 167 807 193 807 193 809 Z"/>
<path style="fill: rgb(113, 183, 255);" d="M 173 836 L 169 826 L 179 827 L 179 837 L 173 836 Z"/>
<path style="fill: rgb(113, 183, 255);" d="M 187 836 L 191 826 L 181 827 L 181 837 L 187 836 Z"/>
<path style="fill: rgb(255, 255, 255);" d="M 171 817 L 170 811 L 176 811 L 175 817 L 171 817 Z"/>
<path style="fill: rgb(255, 255, 255);" d="M 185 817 L 184 811 L 190 811 L 189 817 L 185 817 Z"/>
</g>
<rect width="100" height="100" style="fill: rgb(25, 75, 223);" y="550" x="220"/>
<rect width="100" height="100" style="fill: rgb(25, 75, 223);" y="770" x="330"/>
<path style="fill: rgb(19, 61, 182);" d="M 311 548 C 347 567 375 666 283 663 C 264 660 219 658 210 623 C 208 602 206 561 222 550 C 265 525 258 511 311 548 Z M 227 559 C 208 569 213 607 215 625 C 219 645 262 656 275 658 C 362 666 351 587 310 554 C 248 520 264 538 227 559 Z M 225 575 C 236 543 304 519 312 587 C 312 604 354 633 312 648 C 295 653 262 659 250 647 C 222 616 203 626 225 575 Z M 257 641 C 269 656 290 647 304 642 C 320 636 308 604 308 592 C 307 534 243 548 230 575 C 212 633 233 614 257 641 Z M 243 567 C 259 548 313 551 301 600 C 297 612 320 640 287 639 C 274 638 257 634 249 624 C 232 603 215 597 243 567 Z M 257 622 C 262 635 271 632 282 634 C 310 638 295 610 297 602 C 310 561 265 554 249 569 C 217 605 248 597 257 622 Z M 267 622 L 272 623 L 284 618 L 287 621 C 289 621 276 637 265 626 Z M 262 613 C 199 572 324 538 283 608 L 286 613 L 283 618 L 274 617 L 268 621 L 263 618 Z M 272 588 C 266 596 276 606 282 598 C 286 592 276 585 272 588 Z M 258 603 C 268 608 272 595 263 589 C 258 589 252 599 258 603 Z M 277 610 C 272 607 272 607 270 612 C 270 614 277 612 277 610 Z"/>
<path d="M 337 779 C 334 780 332 783 330 785 L 330 777 C 333 778 335 778 338 778 C 338 778 337 779 337 779 Z M 330 772 C 331 771 331 770 332 770 L 350 770 C 349 771 348 772 346 773 C 339 775 335 775 330 775 Z M 420 774 C 417 773 415 771 413 770 L 424 770 C 426 771 428 773 430 775 L 430 781 C 429 781 429 781 428 781 C 425 779 423 776 420 774 Z M 430 784 C 430 783 429 783 429 782 C 429 782 430 782 430 782 Z M 335 795 C 336 792 337 789 339 787 C 342 787 345 786 347 786 C 344 788 342 791 341 794 C 339 794 337 795 335 795 C 335 795 335 795 335 795 Z M 404 770 C 407 772 409 774 411 777 C 409 778 406 778 404 778 C 403 777 401 776 399 775 C 401 774 404 774 407 773 C 404 773 400 773 396 774 C 385 770 370 772 359 777 C 354 780 349 783 339 786 C 342 782 346 778 350 775 C 353 774 357 772 361 770 Z M 422 807 C 422 809 423 812 424 814 C 422 816 421 817 419 819 C 418 816 418 814 418 812 C 419 812 419 811 420 811 C 419 811 419 812 418 812 C 418 812 418 812 418 812 C 418 809 418 807 418 805 C 419 804 420 803 421 803 C 422 804 422 805 422 807 Z M 430 825 L 430 837 C 428 838 425 840 422 842 C 422 838 421 835 421 831 C 423 829 426 827 429 826 C 426 827 423 828 421 830 C 420 826 419 823 419 820 C 421 818 423 817 424 815 C 426 818 428 821 430 825 Z M 430 864 C 428 866 425 867 422 868 C 420 869 417 869 414 870 L 404 870 C 414 865 424 865 427 853 C 424 856 421 858 417 860 C 421 857 422 852 422 845 C 425 842 427 840 430 838 Z M 364 870 C 363 869 361 868 360 867 C 358 865 356 863 354 861 C 358 861 361 860 364 858 C 365 859 366 860 367 861 C 368 862 368 862 369 863 C 366 864 363 864 360 864 C 363 864 366 864 369 863 C 372 866 374 867 377 868 C 375 869 373 869 371 870 Z M 330 840 L 330 817 C 331 818 333 818 334 818 C 330 840 339 841 351 848 C 346 849 343 849 340 849 C 336 846 333 843 330 840 Z M 330 807 C 331 805 332 801 334 798 C 336 797 338 797 339 797 C 337 805 335 811 334 816 C 333 816 331 816 330 815 Z M 353 787 C 355 785 357 783 359 782 C 362 781 364 779 366 778 C 373 776 380 776 386 777 C 374 780 362 786 350 791 C 351 790 352 788 353 787 Z M 411 820 C 411 821 410 823 411 825 C 409 826 408 827 407 828 C 407 825 407 823 407 822 C 407 822 407 822 407 821 C 409 820 410 819 411 818 C 411 819 411 819 411 820 Z M 359 844 C 358 843 358 843 357 842 C 361 842 364 842 367 841 C 367 842 367 842 367 842 C 368 844 369 846 370 848 C 368 848 367 849 365 849 C 363 848 361 846 359 844 Z M 377 842 L 382 843 C 379 844 377 845 375 846 Z M 397 841 C 399 841 388 854 378 848 C 384 846 390 843 395 839 Z M 393 828 L 393 828 C 387 832 381 836 373 838 L 372 834 C 376 833 378 831 381 829 C 381 830 380 831 380 832 C 380 834 387 832 387 830 C 385 829 384 828 383 828 C 390 823 395 816 401 810 C 400 815 397 821 393 828 Z M 396 833 L 394 836 C 393 837 392 837 391 838 L 384 837 L 378 841 L 376 840 C 383 838 389 834 395 831 Z M 382 808 C 378 813 380 818 384 820 C 379 824 375 828 369 831 C 366 829 364 827 362 825 C 364 824 365 823 367 822 C 367 822 368 823 368 823 C 376 827 380 819 377 813 C 383 806 389 799 399 794 C 400 796 401 799 401 803 C 398 805 395 809 392 812 C 390 808 385 806 382 808 Z M 373 809 C 370 809 366 813 366 817 C 363 819 361 820 358 821 C 356 818 354 814 354 811 C 371 810 375 798 389 788 C 390 789 392 789 393 789 C 391 790 390 791 389 792 C 391 791 392 791 394 790 C 395 791 396 791 397 792 C 389 795 382 803 375 810 C 374 810 374 809 373 809 Z M 356 870 L 342 870 C 337 868 333 865 330 861 L 330 860 C 333 861 337 862 340 862 C 345 865 351 868 356 870 Z M 330 854 C 332 856 333 858 335 859 C 334 859 332 859 330 858 Z M 412 779 C 413 780 414 781 415 782 C 413 782 411 783 409 783 C 408 782 407 781 406 780 C 408 780 410 779 412 779 Z M 415 784 C 417 786 418 790 419 793 C 418 793 416 794 415 794 C 414 790 412 787 410 785 C 412 784 414 784 415 784 Z M 420 795 C 420 796 421 798 421 800 C 420 800 418 801 417 802 C 417 800 416 798 416 797 C 417 796 418 795 420 795 Z M 401 870 L 379 870 C 380 870 382 869 383 869 C 393 870 405 865 414 862 C 410 864 405 867 401 870 Z M 352 859 C 351 858 349 856 347 855 C 352 855 356 854 359 854 C 361 855 363 856 364 858 C 361 859 357 859 352 859 Z M 346 854 C 344 853 343 852 342 851 C 345 850 348 850 352 849 C 354 850 355 851 357 852 C 353 852 350 853 346 854 Z M 391 778 C 393 778 396 779 398 780 C 395 781 393 782 391 783 C 387 782 384 782 380 782 C 384 780 387 779 391 778 Z M 401 782 C 402 783 403 784 404 785 C 402 785 400 786 398 787 C 397 786 396 785 395 785 C 396 784 399 783 401 782 Z M 405 786 C 407 788 408 789 409 791 C 407 791 405 791 403 791 C 402 790 401 789 400 788 C 402 787 403 787 405 786 Z M 409 791 C 410 792 410 794 411 796 C 410 796 409 797 407 798 C 407 796 405 794 404 792 C 406 792 407 791 409 791 Z M 412 799 C 412 801 413 803 413 805 C 412 806 410 808 409 809 C 409 807 409 804 409 802 C 410 801 411 800 412 799 Z M 413 808 C 413 810 412 813 412 816 C 411 817 409 817 408 818 C 409 815 409 813 409 810 C 410 809 412 809 413 808 Z M 411 828 C 411 830 412 832 413 835 C 411 835 410 836 409 837 C 409 835 408 833 408 830 C 409 830 410 829 411 828 Z M 414 838 C 414 841 415 844 415 847 C 410 851 403 855 397 859 C 394 859 392 859 389 858 C 392 857 394 856 396 854 C 407 855 409 849 409 843 C 411 841 412 839 414 838 Z M 414 853 C 413 855 411 857 409 857 C 411 856 412 855 414 853 Z M 385 857 C 379 856 373 854 368 852 C 370 851 371 851 373 850 C 377 853 383 853 390 854 C 388 855 387 856 385 857 Z M 356 840 C 355 839 353 837 352 836 C 356 836 360 836 364 836 C 365 837 365 838 366 839 C 363 840 360 840 356 840 Z M 351 835 C 348 832 345 829 343 826 C 348 827 352 827 356 827 C 358 829 360 831 362 833 C 359 834 355 835 351 835 Z M 342 824 C 340 822 339 820 339 818 C 341 817 343 817 345 816 C 346 819 349 821 351 823 C 348 824 345 824 342 824 Z M 338 816 C 338 814 338 812 339 809 C 341 810 343 810 345 810 C 345 813 345 814 345 816 C 343 816 341 816 338 816 Z M 339 809 C 340 805 342 801 346 795 C 350 794 353 793 357 792 C 351 799 347 804 346 808 C 343 809 341 809 339 809 Z M 354 806 C 357 795 371 788 383 788 C 374 794 366 802 354 806 Z" style="fill: rgb(19, 61, 182);"/>
<rect width="100" height="100" style="fill: rgb(25, 75, 223);" y="770" x="440"/>
<path d="M 447 779 C 444 780 442 783 440 785 L 440 772 C 441 771 441 770 442 770 L 460 770 C 457 773 452 776 447 779 Z M 530 774 C 527 773 525 771 523 770 L 534 770 C 536 771 538 773 540 775 L 540 784 C 537 780 534 777 530 774 Z M 445 795 C 448 785 457 776 468 770 L 514 770 C 523 777 530 788 532 807 C 532 812 536 818 540 825 L 540 864 C 538 866 535 867 532 868 C 530 869 527 869 524 870 L 474 870 C 473 869 471 868 470 867 C 457 853 446 847 440 840 L 440 807 C 441 804 443 800 445 795 Z M 477 861 C 489 876 510 867 524 862 C 540 856 528 824 528 812 C 527 754 463 768 450 795 C 432 853 453 834 477 861 Z M 463 787 C 479 768 533 771 521 820 C 517 832 540 860 507 859 C 494 858 477 854 469 844 C 452 823 435 817 463 787 Z M 477 842 C 482 855 491 852 502 854 C 530 858 515 830 517 822 C 530 781 485 774 469 789 C 437 825 468 817 477 842 Z M 487 842 L 492 843 L 504 838 L 507 841 C 509 841 496 857 485 846 L 487 842 Z M 482 833 C 419 792 544 758 503 828 L 506 833 L 503 838 L 494 837 L 488 841 L 483 838 L 482 833 Z M 492 808 C 486 816 496 826 502 818 C 506 812 496 805 492 808 Z M 478 823 C 488 828 492 815 483 809 C 478 809 472 819 478 823 Z M 497 830 C 492 827 492 827 490 832 C 490 834 497 832 497 830 Z M 466 870 L 452 870 C 447 868 443 865 440 861 L 440 854 C 446 861 456 866 466 870 Z" style="fill: rgb(19, 61, 182);"/>
<path style="fill: rgb(15, 48, 147);" d="M 499 792 C 508 785 526 779 546 782 C 523 782 512 787 499 792 Z M 436 774 C 446 776 453 775 478 766 C 457 778 446 782 436 774 Z M 447 787 C 470 780 468 772 495 774 C 469 777 473 785 447 787 Z M 432 797 C 461 796 490 773 517 773 C 484 780 458 802 432 797 Z M 448 809 C 485 808 488 775 533 777 C 477 783 492 820 448 809 Z M 444 823 C 485 831 492 786 519 791 C 484 797 486 840 444 823 Z M 456 835 C 497 838 505 792 533 793 C 501 807 501 843 456 835 Z M 449 840 C 495 844 505 824 530 811 C 512 824 495 849 449 840 Z M 445 855 C 491 851 514 830 536 813 C 521 829 492 858 445 855 Z M 470 864 C 505 863 508 837 539 826 C 516 837 516 863 470 864 Z M 545 834 C 527 845 521 872 465 872 C 500 872 531 840 545 834 Z M 505 876 C 514 864 529 862 537 853 C 533 868 518 864 505 876 Z M 517 812 C 526 800 533 797 550 797 C 534 800 529 803 517 812 Z M 433 813 C 440 816 446 817 456 816 C 449 818 440 820 433 813 Z M 436 846 C 443 848 445 851 469 847 C 447 853 442 851 436 846 Z M 434 857 C 443 860 466 861 478 857 C 460 864 448 865 434 857 Z"/>
</svg>