<?xml version="1.0" encoding="utf-8"?>
<svg viewBox="0 0 160 160" xmlns="http://www.w3.org/2000/svg">
<g transform="matrix(1.6, 0, 0, 1.6, -428.800018, -225.600006)">
<rect width="100" height="100" style="fill: rgb(25, 75, 223);" y="141" x="268"/>
<path d="M 275 150 C 272 151 270 154 268 156 L 268 148 C 271 149 273 149 276 149 C 276 149 275 150 275 150 Z M 268 143 C 269 142 269 141 270 141 L 288 141 C 287 142 286 143 284 144 C 277 146 273 146 268 146 L 268 143 Z M 358 145 C 355 144 353 142 351 141 L 362 141 C 364 142 366 144 368 146 L 368 152 C 367 152 367 152 366 152 C 363 150 361 147 358 145 Z M 368 155 C 368 154 367 154 367 153 C 367 153 368 153 368 153 L 368 155 Z M 273 166 C 274 163 275 160 277 158 C 280 158 283 157 285 157 C 282 159 280 162 279 165 C 277 165 275 166 273 166 C 273 166 273 166 273 166 Z M 342 141 C 345 143 347 145 349 148 C 347 149 344 149 342 149 C 341 148 339 147 337 146 C 339 145 342 145 345 144 C 342 144 338 144 334 145 C 323 141 308 143 297 148 C 292 151 287 154 277 157 C 280 153 284 149 288 146 C 291 145 295 143 299 141 L 342 141 Z M 360 178 C 360 180 361 183 362 185 C 360 187 359 188 357 190 C 356 187 356 185 356 183 C 357 183 357 182 358 182 C 357 182 357 183 356 183 C 356 183 356 183 356 183 C 356 180 356 178 356 176 C 357 175 358 174 359 174 C 360 175 360 176 360 178 Z M 368 196 L 368 208 C 366 209 363 211 360 213 C 360 209 359 206 359 202 C 361 200 364 198 367 197 C 364 198 361 199 359 201 C 358 197 357 194 357 191 C 359 189 361 188 362 186 C 364 189 366 192 368 196 Z M 368 235 C 366 237 363 238 360 239 C 358 240 355 240 352 241 L 342 241 C 352 236 362 236 365 224 C 362 227 359 229 355 231 C 359 228 360 223 360 216 C 363 213 365 211 368 209 L 368 235 Z M 302 241 C 301 240 299 239 298 238 C 296 236 294 234 292 232 C 296 232 299 231 302 229 C 303 230 304 231 305 232 C 306 233 306 233 307 234 C 304 235 301 235 298 235 C 301 235 304 235 307 234 C 310 237 312 238 315 239 C 313 240 311 240 309 241 L 302 241 Z M 268 211 L 268 188 C 269 189 271 189 272 189 C 268 211 277 212 289 219 C 284 220 281 220 278 220 C 274 217 271 214 268 211 Z M 268 178 C 269 176 270 172 272 169 C 274 168 276 168 277 168 C 275 176 273 182 272 187 C 271 187 269 187 268 186 L 268 178 Z M 291 158 C 293 156 295 154 297 153 C 300 152 302 150 304 149 C 311 147 318 147 324 148 C 312 151 300 157 288 162 C 289 161 290 159 291 158 Z M 349 191 C 349 192 348 194 349 196 C 347 197 346 198 345 199 C 345 196 345 194 345 193 C 345 193 345 193 345 192 C 347 191 348 190 349 189 C 349 190 349 190 349 191 Z M 297 215 C 296 214 296 214 295 213 C 299 213 302 213 305 212 C 305 213 305 213 305 213 C 306 215 307 217 308 219 C 306 219 305 220 303 220 C 301 219 299 217 297 215 Z M 315 213 L 320 214 C 317 215 315 216 313 217 L 315 213 Z M 335 212 C 337 212 326 225 316 219 C 322 217 328 214 333 210 L 335 212 Z M 331 199 C 325 203 319 207 311 209 L 310 205 C 314 204 316 202 319 200 C 319 201 318 202 318 203 C 318 205 325 203 325 201 C 323 200 322 199 321 199 C 328 194 333 187 339 181 C 338 186 335 192 331 199 Z M 334 204 L 332 207 C 331 208 330 208 329 209 L 322 208 L 316 212 L 314 211 C 321 209 327 205 333 202 L 334 204 Z M 320 179 C 316 184 318 189 322 191 C 317 195 313 199 307 202 C 304 200 302 198 300 196 C 302 195 303 194 305 193 C 305 193 306 194 306 194 C 314 198 318 190 315 184 C 321 177 327 170 337 165 C 338 167 339 170 339 174 C 336 176 333 180 330 183 C 328 179 323 177 320 179 Z M 311 180 C 308 180 304 184 304 188 C 301 190 299 191 296 192 C 294 189 292 185 292 182 C 309 181 313 169 327 159 C 328 160 330 160 331 160 C 329 161 328 162 327 163 C 329 162 330 162 332 161 C 333 162 334 162 335 163 C 327 166 320 174 313 181 C 312 181 312 180 311 180 Z M 294 241 L 280 241 C 275 239 271 236 268 232 L 268 231 C 271 232 275 233 278 233 C 283 236 289 239 294 241 Z M 268 225 C 270 227 271 229 273 230 C 272 230 270 230 268 229 L 268 225 Z M 350 150 C 351 151 352 152 353 153 C 351 153 349 154 347 154 C 346 153 345 152 344 151 C 346 151 348 150 350 150 Z M 353 155 C 355 157 356 161 357 164 C 356 164 354 165 353 165 C 352 161 350 158 348 156 C 350 155 352 155 353 155 Z M 358 166 C 358 167 359 169 359 171 C 358 171 356 172 355 173 C 355 171 354 169 354 168 C 355 167 356 166 358 166 Z M 339 241 L 317 241 C 318 241 320 240 321 240 C 331 241 343 236 352 233 C 348 235 343 238 339 241 Z M 290 230 C 289 229 287 227 285 226 C 290 226 294 225 297 225 C 299 226 301 227 302 229 C 299 230 295 230 290 230 Z M 284 225 C 282 224 281 223 280 222 C 283 221 286 221 290 220 C 292 221 293 222 295 223 C 291 223 288 224 284 225 Z M 329 149 C 331 149 334 150 336 151 C 333 152 331 153 329 154 C 325 153 322 153 318 153 C 322 151 325 150 329 149 Z M 339 153 C 340 154 341 155 342 156 C 340 156 338 157 336 158 C 335 157 334 156 333 156 C 334 155 337 154 339 153 Z M 343 157 C 345 159 346 160 347 162 C 345 162 343 162 341 162 C 340 161 339 160 338 159 C 340 158 341 158 343 157 Z M 347 162 C 348 163 348 165 349 167 C 348 167 347 168 345 169 C 345 167 343 165 342 163 C 344 163 345 162 347 162 Z M 350 170 C 350 172 351 174 351 176 C 350 177 348 179 347 180 C 347 178 347 175 347 173 C 348 172 349 171 350 170 Z M 351 179 C 351 181 350 184 350 187 C 349 188 347 188 346 189 C 347 186 347 184 347 181 C 348 180 350 180 351 179 Z M 349 199 C 349 201 350 203 351 206 C 349 206 348 207 347 208 C 347 206 346 204 346 201 C 347 201 348 200 349 199 Z M 352 209 C 352 212 353 215 353 218 C 348 222 341 226 335 230 C 332 230 330 230 327 229 C 330 228 332 227 334 225 C 345 226 347 220 347 214 C 349 212 350 210 352 209 Z M 352 224 C 351 226 349 228 347 228 C 349 227 350 226 352 224 Z M 323 228 C 317 227 311 225 306 223 C 308 222 309 222 311 221 C 315 224 321 224 328 225 C 326 226 325 227 323 228 Z M 294 211 C 293 210 291 208 290 207 C 294 207 298 207 302 207 C 303 208 303 209 304 210 C 301 211 298 211 294 211 Z M 289 206 C 286 203 283 200 281 197 C 286 198 290 198 294 198 C 296 200 298 202 300 204 C 297 205 293 206 289 206 Z M 280 195 C 278 193 277 191 277 189 C 279 188 281 188 283 187 C 284 190 287 192 289 194 C 286 195 283 195 280 195 Z M 276 187 C 276 185 276 183 277 180 C 279 181 281 181 283 181 C 283 184 283 185 283 187 C 281 187 279 187 276 187 Z M 277 180 C 278 176 280 172 284 166 C 288 165 291 164 295 163 C 289 170 285 175 284 179 C 281 180 279 180 277 180 Z M 292 177 C 295 166 309 159 321 159 C 312 165 304 173 292 177 Z" style="fill: rgb(19, 61, 182);"/>
</g>
<g transform="matrix(0.473086, 0.126764, -0.126764, 0.473086, 123.297234, -337.883514)" style="">
<g transform="matrix(1.11928, -1.119283, 1.119283, 1.11928, -1059.001343, 87.232193)" style="">
<path style="fill: rgb(255, 255, 255);" d="M 165 811 C 165 825 168 857 180 857 C 192 857 195 825 195 811 C 195 774 165 774 165 811 Z"/>
<g>
<g>
<path style="fill: rgb(217, 176, 105);" d="M 167 806 C 169 779 191 779 193 806 C 193 804 167 804 167 806 Z"/>
<path style="fill: rgb(217, 176, 105);" d="M 180 855 C 175 855 171 847 170 838 C 170 840 190 840 190 838 C 189 847 185 855 180 855 Z"/>
<path style="fill: rgb(217, 176, 105);" d="M 193 809 C 193 812 193 816 192 820 C 192 823 168 823 168 820 C 167 816 167 812 167 809 C 167 807 193 807 193 809 Z"/>
<path style="fill: rgb(113, 183, 255);" d="M 173 836 L 169 826 L 179 827 L 179 837 L 173 836 Z"/>
<path style="fill: rgb(113, 183, 255);" d="M 187 836 L 191 826 L 181 827 L 181 837 L 187 836 Z"/>
<path style="fill: rgb(255, 255, 255);" d="M 171 817 L 170 811 L 176 811 L 175 817 L 171 817 Z"/>
<path style="fill: rgb(255, 255, 255);" d="M 185 817 L 184 811 L 190 811 L 189 817 L 185 817 Z"/>
</g>
</g>
</g>
</g>
</svg>