<svg width="21" height="15" viewBox="0 0 21 15" fill="none" xmlns="http://www.w3.org/2000/svg">
<path d="M6.44156 10.6144L3.47156 13.6144C3.14156 13.9144 2.70156 14.1144 2.22156 14.1144C1.75743 14.1144 1.31231 13.93 0.984121 13.6018C0.655932 13.2736 0.471558 12.8285 0.471558 12.3644V12.1144L1.47156 4.73438C1.68156 2.42438 3.61156 0.61438 5.97156 0.61438H14.9716C17.3316 0.61438 19.2616 2.42438 19.4716 4.73438L20.4716 12.1144V12.3644C20.4716 12.8285 20.2872 13.2736 19.959 13.6018C19.6308 13.93 19.1857 14.1144 18.7216 14.1144C18.2416 14.1144 17.8016 13.9144 17.4716 13.6144L14.5016 10.6144H6.44156ZM5.47156 2.61438V4.61438H3.47156V5.61438H5.47156V7.61438H6.47156V5.61438H8.47156V4.61438H6.47156V2.61438H5.47156ZM14.9716 2.61438C14.7726 2.61438 14.5819 2.6934 14.4412 2.83405C14.3006 2.9747 14.2216 3.16547 14.2216 3.36438C14.2216 3.56329 14.3006 3.75406 14.4412 3.89471C14.5819 4.03536 14.7726 4.11438 14.9716 4.11438C15.1705 4.11438 15.3612 4.03536 15.5019 3.89471C15.6425 3.75406 15.7216 3.56329 15.7216 3.36438C15.7216 3.16547 15.6425 2.9747 15.5019 2.83405C15.3612 2.6934 15.1705 2.61438 14.9716 2.61438ZM13.2216 4.36438C13.0226 4.36438 12.8319 4.4434 12.6912 4.58405C12.5506 4.7247 12.4716 4.91547 12.4716 5.11438C12.4716 5.31329 12.5506 5.50406 12.6912 5.64471C12.8319 5.78536 13.0226 5.86438 13.2216 5.86438C13.4205 5.86438 13.6112 5.78536 13.7519 5.64471C13.8925 5.50406 13.9716 5.31329 13.9716 5.11438C13.9716 4.91547 13.8925 4.7247 13.7519 4.58405C13.6112 4.4434 13.4205 4.36438 13.2216 4.36438ZM16.7216 4.36438C16.5226 4.36438 16.3319 4.4434 16.1912 4.58405C16.0506 4.7247 15.9716 4.91547 15.9716 5.11438C15.9716 5.31329 16.0506 5.50406 16.1912 5.64471C16.3319 5.78536 16.5226 5.86438 16.7216 5.86438C16.9205 5.86438 17.1112 5.78536 17.2519 5.64471C17.3925 5.50406 17.4716 5.31329 17.4716 5.11438C17.4716 4.91547 17.3925 4.7247 17.2519 4.58405C17.1112 4.4434 16.9205 4.36438 16.7216 4.36438ZM14.9716 6.11438C14.7726 6.11438 14.5819 6.1934 14.4412 6.33405C14.3006 6.4747 14.2216 6.66547 14.2216 6.86438C14.2216 7.06329 14.3006 7.25406 14.4412 7.39471C14.5819 7.53536 14.7726 7.61438 14.9716 7.61438C15.1705 7.61438 15.3612 7.53536 15.5019 7.39471C15.6425 7.25406 15.7216 7.06329 15.7216 6.86438C15.7216 6.66547 15.6425 6.4747 15.5019 6.33405C15.3612 6.1934 15.1705 6.11438 14.9716 6.11438Z" fill="white"/>
</svg>
