<svg width="23" height="16" viewBox="0 0 23 16" fill="none" xmlns="http://www.w3.org/2000/svg">
<path d="M11.5 5C10.7044 5 9.94129 5.31607 9.37868 5.87868C8.81607 6.44129 8.5 7.20435 8.5 8C8.5 8.79565 8.81607 9.55871 9.37868 10.1213C9.94129 10.6839 10.7044 11 11.5 11C12.2956 11 13.0587 10.6839 13.6213 10.1213C14.1839 9.55871 14.5 8.79565 14.5 8C14.5 7.20435 14.1839 6.44129 13.6213 5.87868C13.0587 5.31607 12.2956 5 11.5 5ZM11.5 13C10.1739 13 8.90215 12.4732 7.96447 11.5355C7.02678 10.5979 6.5 9.32608 6.5 8C6.5 6.67392 7.02678 5.40215 7.96447 4.46447C8.90215 3.52678 10.1739 3 11.5 3C12.8261 3 14.0979 3.52678 15.0355 4.46447C15.9732 5.40215 16.5 6.67392 16.5 8C16.5 9.32608 15.9732 10.5979 15.0355 11.5355C14.0979 12.4732 12.8261 13 11.5 13ZM11.5 0.5C6.5 0.5 2.23 3.61 0.5 8C2.23 12.39 6.5 15.5 11.5 15.5C16.5 15.5 20.77 12.39 22.5 8C20.77 3.61 16.5 0.5 11.5 0.5Z" fill="#009F9D"/>
</svg>
