<svg width="19" height="19" viewBox="0 0 19 19" fill="none" xmlns="http://www.w3.org/2000/svg">
<path d="M6.8 18.5C6.56131 18.5 6.33239 18.4052 6.1636 18.2364C5.99482 18.0676 5.9 17.8387 5.9 17.6V14.9H2.3C1.82261 14.9 1.36477 14.7104 1.02721 14.3728C0.689642 14.0352 0.5 13.5774 0.5 13.1V2.3C0.5 1.301 1.31 0.5 2.3 0.5H16.7C17.1774 0.5 17.6352 0.689642 17.9728 1.02721C18.3104 1.36477 18.5 1.82261 18.5 2.3V13.1C18.5 13.5774 18.3104 14.0352 17.9728 14.3728C17.6352 14.7104 17.1774 14.9 16.7 14.9H11.21L7.88 18.239C7.7 18.41 7.475 18.5 7.25 18.5H6.8ZM7.7 13.1V15.872L10.472 13.1H16.7V2.3H2.3V13.1H7.7Z" fill="#009F9D"/>
</svg>
