<svg width="16" height="16" viewBox="0 0 16 16" fill="none" xmlns="http://www.w3.org/2000/svg">
<path d="M1.89148 0.125H14.1415C14.6056 0.125 15.0507 0.309374 15.3789 0.637563C15.7071 0.965752 15.8915 1.41087 15.8915 1.875V14.125C15.8915 14.5891 15.7071 15.0342 15.3789 15.3624C15.0507 15.6906 14.6056 15.875 14.1415 15.875H1.89148C1.42735 15.875 0.982231 15.6906 0.654043 15.3624C0.325854 15.0342 0.141479 14.5891 0.141479 14.125V1.875C0.141479 1.41087 0.325854 0.965752 0.654043 0.637563C0.982231 0.309374 1.42735 0.125 1.89148 0.125ZM4.07898 10.625C3.73088 10.625 3.39704 10.7633 3.1509 11.0094C2.90476 11.2556 2.76648 11.5894 2.76648 11.9375C2.76648 12.2856 2.90476 12.6194 3.1509 12.8656C3.39704 13.1117 3.73088 13.25 4.07898 13.25C4.42708 13.25 4.76092 13.1117 5.00706 12.8656C5.2532 12.6194 5.39148 12.2856 5.39148 11.9375C5.39148 11.5894 5.2532 11.2556 5.00706 11.0094C4.76092 10.7633 4.42708 10.625 4.07898 10.625ZM2.76648 6.25V8C4.15887 8 5.49422 8.55312 6.47879 9.53769C7.46336 10.5223 8.01648 11.8576 8.01648 13.25H9.76648C9.76648 11.3935 9.02898 9.61301 7.71623 8.30025C6.40347 6.9875 4.62299 6.25 2.76648 6.25ZM2.76648 2.75V4.5C5.08712 4.5 7.31272 5.42187 8.95366 7.06282C10.5946 8.70376 11.5165 10.9294 11.5165 13.25H13.2665C13.2665 10.4652 12.1602 7.79451 10.1911 5.82538C8.22197 3.85625 5.55125 2.75 2.76648 2.75Z" fill="white"/>
</svg>
