<svg width="18" height="18" viewBox="0 0 18 18" fill="none" xmlns="http://www.w3.org/2000/svg">
<path d="M9.01648 0.25C10.1655 0.25 11.3034 0.476325 12.365 0.916054C13.4266 1.35578 14.3912 2.0003 15.2037 2.81282C16.0162 3.62533 16.6607 4.58992 17.1004 5.65152C17.5402 6.71312 17.7665 7.85093 17.7665 9C17.7665 11.3206 16.8446 13.5462 15.2037 15.1872C13.5627 16.8281 11.3371 17.75 9.01648 17.75C4.99148 17.75 1.62273 15.055 0.581479 11.3888L3.93273 12.7712C4.16023 13.9 5.16648 14.7575 6.36523 14.7575C7.73023 14.7575 8.84148 13.6462 8.84148 12.2812V12.1675L11.8165 10.0412H11.8865C13.7065 10.0412 15.1852 8.5625 15.1852 6.7425C15.1852 4.9225 13.7065 3.44375 11.8865 3.44375C10.0665 3.44375 8.57898 4.9225 8.57898 6.7425V6.78625L6.50523 9.81375L6.36523 9.805C5.84898 9.805 5.36773 9.9625 4.97398 10.2337L0.266479 8.3C0.642729 3.79375 4.40523 0.25 9.01648 0.25ZM5.76148 13.5238C6.46148 13.8125 7.26648 13.4887 7.55523 12.7887C7.84398 12.0887 7.51148 11.2925 6.82898 11.0037L5.70898 10.54C6.13773 10.3825 6.61898 10.3737 7.07398 10.5662C7.53773 10.75 7.89648 11.1087 8.08023 11.5725C8.27273 12.0275 8.27273 12.535 8.08023 12.99C7.70398 13.935 6.59273 14.39 5.64773 13.9962C5.21023 13.8125 4.87773 13.48 4.69398 13.0863L5.76148 13.5238ZM14.0915 6.7425C14.0915 7.95875 13.1027 8.9475 11.8865 8.9475C10.679 8.9475 9.69023 7.95875 9.69023 6.7425C9.68907 6.45376 9.74509 6.16765 9.85505 5.90066C9.96501 5.63368 10.1267 5.39111 10.3309 5.18694C10.5351 4.98276 10.7777 4.82103 11.0446 4.71107C11.3116 4.60111 11.5977 4.54509 11.8865 4.54625C13.1027 4.54625 14.0915 5.535 14.0915 6.7425ZM10.2415 6.7425C10.2415 7.6525 10.9765 8.39625 11.8952 8.39625C12.8052 8.39625 13.5402 7.6525 13.5402 6.7425C13.5402 5.8325 12.8052 5.08875 11.8952 5.08875C10.9765 5.08875 10.2415 5.8325 10.2415 6.7425Z" fill="white"/>
</svg>
