<svg width="18" height="18" viewBox="0 0 18 18" fill="none" xmlns="http://www.w3.org/2000/svg">
<path d="M16.0165 5.5H2.01648V3.75H16.0165V5.5ZM14.2665 0.25H3.76648V2H14.2665V0.25ZM17.7665 9V16C17.7665 16.4641 17.5821 16.9092 17.2539 17.2374C16.9257 17.5656 16.4806 17.75 16.0165 17.75H2.01648C1.55235 17.75 1.10723 17.5656 0.779043 17.2374C0.450854 16.9092 0.266479 16.4641 0.266479 16V9C0.266479 8.53587 0.450854 8.09075 0.779043 7.76256C1.10723 7.43437 1.55235 7.25 2.01648 7.25H16.0165C16.4806 7.25 16.9257 7.43437 17.2539 7.76256C17.5821 8.09075 17.7665 8.53587 17.7665 9ZM12.5165 12.5L7.26648 9.63875V15.3525L12.5165 12.5Z" fill="white"/>
</svg>
